<?xml version="1.0" encoding="utf-8"?>
<svg version="1.1" xmlns:xlink="http://www.w3.org/1999/xlink" width="10px" height="80px" preserveAspectRatio="xMidYMin meet" viewBox="1420 1998  8 80" xmlns="http://www.w3.org/2000/svg">
  <defs>
    <mask fill="white" id="clip134">
      <path d="M 1404 2053  L 1446 2053  L 1446 2092  L 1404 2092  Z M 1404 1988  L 1446 1988  L 1446 2159  L 1404 2159  Z " fill-rule="evenodd" />
    </mask>
  </defs>
  <path d="M 1424 2000  L 1424 2073  L 1425 2073  L 1425 2148  " stroke-width="2" stroke="#555555" fill="none" mask="url(#clip134)" />
  <path d="M 1424 1998  A 3.5 3.5 0 0 0 1420.5 2001.5 A 3.5 3.5 0 0 0 1424 2005 A 3.5 3.5 0 0 0 1427.5 2001.5 A 3.5 3.5 0 0 0 1424 1998 Z M 1429.29289321881 2142.89289321881  L 1425 2147.18578643763  L 1420.70710678119 2142.89289321881  L 1419.29289321881 2144.30710678119  L 1424.29289321881 2149.30710678119  L 1425 2150.01421356237  L 1425.70710678119 2149.30710678119  L 1430.70710678119 2144.30710678119  L 1429.29289321881 2142.89289321881  Z " fill-rule="nonzero" fill="#555555" stroke="none" mask="url(#clip134)" />
</svg>