<?xml version="1.0" encoding="utf-8"?>
<svg version="1.1" xmlns:xlink="http://www.w3.org/1999/xlink" width="76px" height="10px" preserveAspectRatio="xMinYMid meet" viewBox="429 1939  76 8" xmlns="http://www.w3.org/2000/svg">
  <path d="M 1425 2262  L 1425 2345  L 434 2345  L 434 1943  L 503 1943  " stroke-width="2" stroke="#555555" fill="none" />
  <path d="M 1425 2260  A 3.5 3.5 0 0 0 1421.5 2263.5 A 3.5 3.5 0 0 0 1425 2267 A 3.5 3.5 0 0 0 1428.5 2263.5 A 3.5 3.5 0 0 0 1425 2260 Z M 497.892893218813 1938.70710678119  L 502.185786437627 1943  L 497.892893218813 1947.29289321881  L 499.307106781187 1948.70710678119  L 504.307106781187 1943.70710678119  L 505.014213562373 1943  L 504.307106781187 1942.29289321881  L 499.307106781187 1937.29289321881  L 497.892893218813 1938.70710678119  Z " fill-rule="nonzero" fill="#555555" stroke="none" />
</svg>