<?xml version="1.0" encoding="utf-8"?>
<svg version="1.1" xmlns:xlink="http://www.w3.org/1999/xlink" width="10px" height="80px" preserveAspectRatio="xMidYMin meet" viewBox="1420 1998 8 80" xmlns="http://www.w3.org/2000/svg">
  <defs>
    <mask fill="white" id="Clip404">
      <path d="M 1404 2053  L 1446 2053  L 1446 2092  L 1404 2092  Z M 1404 1988  L 1446 1988  L 1446 2159  L 1404 2159  Z " fill-rule="evenodd" />
    </mask>
  </defs>
  <path d="M 1424 2000  L 1424 2073  L 1425 2073  L 1425 2148  " stroke-width="2" stroke-dasharray="0" stroke="rgba(85, 85, 85, 1)" fill="none" class="stroke" mask="url(#Clip404)" />
  <path d="M 1424 1998  A 3.5 3.5 0 0 0 1420.5 2001.5 A 3.5 3.5 0 0 0 1424 2005 A 3.5 3.5 0 0 0 1427.5 2001.5 A 3.5 3.5 0 0 0 1424 1998 Z M 1429.2928932188136 2142.8928932188132  L 1425 2147.185786437627  L 1420.7071067811864 2142.8928932188132  L 1419.2928932188136 2144.3071067811866  L 1424.2928932188136 2149.3071067811866  L 1425 2150.014213562373  L 1425.7071067811864 2149.3071067811866  L 1430.7071067811864 2144.3071067811866  L 1429.2928932188136 2142.8928932188132  Z " fill-rule="nonzero" fill="rgba(85, 85, 85, 1)" stroke="none" class="fill" mask="url(#Clip404)" />
</svg>