<?xml version="1.0" encoding="utf-8"?>
<svg version="1.1" xmlns:xlink="http://www.w3.org/1999/xlink" width="10px" height="90px" preserveAspectRatio="xMidYMin meet" viewBox="1421 2260 8 90" xmlns="http://www.w3.org/2000/svg">
  <path d="M 1425 2262  L 1425 2345  L 434 2345  L 434 1943  L 503 1943  " stroke-width="2" stroke-dasharray="0" stroke="rgba(85, 85, 85, 1)" fill="none" class="stroke" />
  <path d="M 1425 2260  A 3.5 3.5 0 0 0 1421.5 2263.5 A 3.5 3.5 0 0 0 1425 2267 A 3.5 3.5 0 0 0 1428.5 2263.5 A 3.5 3.5 0 0 0 1425 2260 Z M 497.89289321881347 1938.7071067811864  L 502.18578643762703 1943  L 497.89289321881347 1947.2928932188136  L 499.3071067811866 1948.7071067811864  L 504.3071067811866 1943.7071067811864  L 505.014213562373 1943  L 504.3071067811866 1942.2928932188136  L 499.3071067811866 1937.2928932188136  L 497.89289321881347 1938.7071067811864  Z " fill-rule="nonzero" fill="rgba(85, 85, 85, 1)" stroke="none" class="fill" />
</svg>