<?xml version="1.0" encoding="utf-8"?>
<svg version="1.1" xmlns:xlink="http://www.w3.org/1999/xlink" width="21px" height="20px" preserveAspectRatio="xMinYMid meet" viewBox="1174 1933 21 18" xmlns="http://www.w3.org/2000/svg">
  <defs>
    <mask fill="white" id="Clip143">
      <path d="M 1213.5 1923  L 1276.5 1923  L 1276.5 1962  L 1213.5 1962  Z M 1171 1923  L 1320 1923  L 1320 1962  L 1171 1962  Z " fill-rule="evenodd" />
    </mask>
  </defs>
  <path d="M 1183 1942  L 1245 1942  L 1245 1943  L 1308 1943  " stroke-width="2" stroke-dasharray="0" stroke="rgba(85, 85, 85, 1)" fill="none" class="stroke" mask="url(#Clip143)" />
  <path d="M 1184.5 1938.5  A 3.5 3.5 0 0 0 1181 1942 A 3.5 3.5 0 0 0 1184.5 1945.5 A 3.5 3.5 0 0 0 1188 1942 A 3.5 3.5 0 0 0 1184.5 1938.5 Z M 1302.8928932188135 1938.7071067811864  L 1307.185786437627 1943  L 1302.8928932188135 1947.2928932188136  L 1304.3071067811863 1948.7071067811864  L 1309.3071067811863 1943.7071067811864  L 1310.0142135623728 1943  L 1309.3071067811863 1942.2928932188136  L 1304.3071067811863 1937.2928932188136  L 1302.8928932188135 1938.7071067811864  Z " fill-rule="nonzero" fill="rgba(85, 85, 85, 1)" stroke="none" class="fill" mask="url(#Clip143)" />
</svg>