<?xml version="1.0" encoding="utf-8"?>
<svg version="1.1" xmlns:xlink="http://www.w3.org/1999/xlink" width="20px" height="20px" preserveAspectRatio="xMinYMid meet" viewBox="984 1933 20 18" xmlns="http://www.w3.org/2000/svg">
  <defs>
    <mask fill="white" id="Clip416">
      <path d="M 869.5 1923  L 932.5 1923  L 932.5 1962  L 869.5 1962  Z M 795 1923  L 1006 1923  L 1006 1962  L 795 1962  Z " fill-rule="evenodd" />
    </mask>
  </defs>
  <path d="M 869.5 1942  L 807 1942  M 932.5 1942  L 994 1942  " stroke-width="2" stroke-dasharray="0" stroke="rgba(85, 85, 85, 1)" fill="none" class="stroke" />
  <path d="M 808.5 1938.5  A 3.5 3.5 0 0 0 805 1942 A 3.5 3.5 0 0 0 808.5 1945.5 A 3.5 3.5 0 0 0 812 1942 A 3.5 3.5 0 0 0 808.5 1938.5 Z M 988.8928932188135 1937.7071067811864  L 993.185786437627 1942  L 988.8928932188135 1946.2928932188136  L 990.3071067811866 1947.7071067811864  L 995.3071067811866 1942.7071067811864  L 996.014213562373 1942  L 995.3071067811866 1941.2928932188136  L 990.3071067811866 1936.2928932188136  L 988.8928932188135 1937.7071067811864  Z " fill-rule="nonzero" fill="rgba(85, 85, 85, 1)" stroke="none" class="fill" mask="url(#Clip416)" />
</svg>