<?xml version="1.0" encoding="utf-8"?>
<svg version="1.1" xmlns:xlink="http://www.w3.org/1999/xlink" width="10px" height="242px" preserveAspectRatio="xMidYMin meet" viewBox="1085 2542 8 242" xmlns="http://www.w3.org/2000/svg">
  <defs>
    <mask fill="white" id="Clip151">
      <path d="M 682 2759  L 766 2759  L 766 2798  L 682 2798  Z M 456 2478  L 1099 2478  L 1099 2798  L 456 2798  Z " fill-rule="evenodd" />
    </mask>
  </defs>
  <path d="M 1089 2544  L 1089 2779  L 459 2779  L 459 2488  L 503 2488  " stroke-width="2" stroke-dasharray="0" stroke="rgba(85, 85, 85, 1)" fill="none" class="stroke" mask="url(#Clip151)" />
  <path d="M 1089 2542  A 3.5 3.5 0 0 0 1085.5 2545.5 A 3.5 3.5 0 0 0 1089 2549 A 3.5 3.5 0 0 0 1092.5 2545.5 A 3.5 3.5 0 0 0 1089 2542 Z M 497.89289321881347 2483.7071067811867  L 502.1857864376268 2488  L 497.89289321881347 2492.2928932188133  L 499.3071067811866 2493.7071067811867  L 504.3071067811866 2488.7071067811867  L 505.01421356237324 2488  L 504.3071067811866 2487.2928932188133  L 499.3071067811866 2482.2928932188133  L 497.89289321881347 2483.7071067811867  Z " fill-rule="nonzero" fill="rgba(85, 85, 85, 1)" stroke="none" class="fill" mask="url(#Clip151)" />
</svg>