<?xml version="1.0" encoding="utf-8"?>
<svg version="1.1" xmlns:xlink="http://www.w3.org/1999/xlink" width="640px" height="10px" preserveAspectRatio="xMinYMid meet" viewBox="454 2775  640 8" xmlns="http://www.w3.org/2000/svg">
  <defs>
    <mask fill="white" id="clip151">
      <path d="M 682 2759  L 766 2759  L 766 2798  L 682 2798  Z M 456 2478  L 1099 2478  L 1099 2798  L 456 2798  Z " fill-rule="evenodd" />
    </mask>
  </defs>
  <path d="M 1089 2544  L 1089 2779  L 459 2779  L 459 2488  L 503 2488  " stroke-width="2" stroke="#555555" fill="none" mask="url(#clip151)" />
  <path d="M 1089 2542  A 3.5 3.5 0 0 0 1085.5 2545.5 A 3.5 3.5 0 0 0 1089 2549 A 3.5 3.5 0 0 0 1092.5 2545.5 A 3.5 3.5 0 0 0 1089 2542 Z M 497.892893218813 2483.70710678119  L 502.185786437627 2488  L 497.892893218813 2492.29289321881  L 499.307106781187 2493.70710678119  L 504.307106781187 2488.70710678119  L 505.014213562373 2488  L 504.307106781187 2487.29289321881  L 499.307106781187 2482.29289321881  L 497.892893218813 2483.70710678119  Z " fill-rule="nonzero" fill="#555555" stroke="none" mask="url(#clip151)" />
</svg>