<?xml version="1.0" encoding="utf-8"?>
<svg version="1.1" xmlns:xlink="http://www.w3.org/1999/xlink" width="69px" height="10px" preserveAspectRatio="xMinYMid meet" viewBox="1181 2483 69 8" xmlns="http://www.w3.org/2000/svg">
  <defs>
    <mask fill="white" id="Clip159">
      <path d="M 1213.5 2468  L 1276.5 2468  L 1276.5 2507  L 1213.5 2507  Z M 1171 2468  L 1320 2468  L 1320 2507  L 1171 2507  Z " fill-rule="evenodd" />
    </mask>
  </defs>
  <path d="M 1183 2487  L 1245 2487  L 1245 2488  L 1308 2488  " stroke-width="2" stroke-dasharray="0" stroke="rgba(85, 85, 85, 1)" fill="none" class="stroke" mask="url(#Clip159)" />
  <path d="M 1184.5 2483.5  A 3.5 3.5 0 0 0 1181 2487 A 3.5 3.5 0 0 0 1184.5 2490.5 A 3.5 3.5 0 0 0 1188 2487 A 3.5 3.5 0 0 0 1184.5 2483.5 Z M 1302.8928932188135 2483.7071067811867  L 1307.1857864376268 2488  L 1302.8928932188135 2492.2928932188133  L 1304.3071067811863 2493.7071067811867  L 1309.3071067811863 2488.7071067811867  L 1310.014213562373 2488  L 1309.3071067811863 2487.2928932188133  L 1304.3071067811863 2482.2928932188133  L 1302.8928932188135 2483.7071067811867  Z " fill-rule="nonzero" fill="rgba(85, 85, 85, 1)" stroke="none" class="fill" mask="url(#Clip159)" />
</svg>