<?xml version="1.0" encoding="utf-8"?>
<svg version="1.1" xmlns:xlink="http://www.w3.org/1999/xlink" width="10px" height="85px" preserveAspectRatio="xMidYMin meet" viewBox="1421 2617  8 85" xmlns="http://www.w3.org/2000/svg">
  <defs>
    <mask fill="white" id="clip166">
      <path d="M 1404 2602  L 1446 2602  L 1446 2641  L 1404 2641  Z M 1404 2533  L 1446 2533  L 1446 2712  L 1404 2712  Z " fill-rule="evenodd" />
    </mask>
  </defs>
  <path d="M 1424 2545  L 1424 2622  L 1425 2622  L 1425 2701  " stroke-width="2" stroke="#555555" fill="none" mask="url(#clip166)" />
  <path d="M 1424 2543  A 3.5 3.5 0 0 0 1420.5 2546.5 A 3.5 3.5 0 0 0 1424 2550 A 3.5 3.5 0 0 0 1427.5 2546.5 A 3.5 3.5 0 0 0 1424 2543 Z M 1429.29289321881 2695.89289321881  L 1425 2700.18578643763  L 1420.70710678119 2695.89289321881  L 1419.29289321881 2697.30710678119  L 1424.29289321881 2702.30710678119  L 1425 2703.01421356237  L 1425.70710678119 2702.30710678119  L 1430.70710678119 2697.30710678119  L 1429.29289321881 2695.89289321881  Z " fill-rule="nonzero" fill="#555555" stroke="none" mask="url(#clip166)" />
</svg>