<?xml version="1.0" encoding="utf-8"?>
<svg version="1.1" xmlns:xlink="http://www.w3.org/1999/xlink" width="20px" height="21px" preserveAspectRatio="xMidYMin meet" viewBox="1415 2536 18 21" xmlns="http://www.w3.org/2000/svg">
  <defs>
    <mask fill="white" id="Clip168">
      <path d="M 1404 2602  L 1446 2602  L 1446 2641  L 1404 2641  Z M 1404 2533  L 1446 2533  L 1446 2712  L 1404 2712  Z " fill-rule="evenodd" />
    </mask>
  </defs>
  <path d="M 1424 2545  L 1424 2622  L 1425 2622  L 1425 2701  " stroke-width="2" stroke-dasharray="0" stroke="rgba(85, 85, 85, 1)" fill="none" class="stroke" mask="url(#Clip168)" />
  <path d="M 1424 2543  A 3.5 3.5 0 0 0 1420.5 2546.5 A 3.5 3.5 0 0 0 1424 2550 A 3.5 3.5 0 0 0 1427.5 2546.5 A 3.5 3.5 0 0 0 1424 2543 Z M 1429.2928932188136 2695.8928932188132  L 1425 2700.185786437627  L 1420.7071067811864 2695.8928932188132  L 1419.2928932188136 2697.3071067811866  L 1424.2928932188136 2702.3071067811866  L 1425 2703.014213562373  L 1425.7071067811864 2702.3071067811866  L 1430.7071067811864 2697.3071067811866  L 1429.2928932188136 2695.8928932188132  Z " fill-rule="nonzero" fill="rgba(85, 85, 85, 1)" stroke="none" class="fill" mask="url(#Clip168)" />
</svg>