<?xml version="1.0" encoding="utf-8"?>
<svg version="1.1" xmlns:xlink="http://www.w3.org/1999/xlink" width="85px" height="10px" preserveAspectRatio="xMinYMid meet" viewBox="420 2484  85 8" xmlns="http://www.w3.org/2000/svg">
  <path d="M 1425 2815  L 1425 2872  L 425 2872  L 425 2488  L 503 2488  " stroke-width="2" stroke="#555555" fill="none" />
  <path d="M 1425 2813  A 3.5 3.5 0 0 0 1421.5 2816.5 A 3.5 3.5 0 0 0 1425 2820 A 3.5 3.5 0 0 0 1428.5 2816.5 A 3.5 3.5 0 0 0 1425 2813 Z M 497.892893218813 2483.70710678119  L 502.185786437627 2488  L 497.892893218813 2492.29289321881  L 499.307106781187 2493.70710678119  L 504.307106781187 2488.70710678119  L 505.014213562373 2488  L 504.307106781187 2487.29289321881  L 499.307106781187 2482.29289321881  L 497.892893218813 2483.70710678119  Z " fill-rule="nonzero" fill="#555555" stroke="none" />
</svg>