<?xml version="1.0" encoding="utf-8"?>
<svg version="1.1" xmlns:xlink="http://www.w3.org/1999/xlink" width="10px" height="340px" preserveAspectRatio="xMidYMin meet" viewBox="1412 216 8 340" xmlns="http://www.w3.org/2000/svg">
  <defs>
    <mask fill="white" id="Clip6">
      <path d="M 837 531  L 921 531  L 921 570  L 837 570  Z M 448 151  L 1426 151  L 1426 570  L 448 570  Z " fill-rule="evenodd" />
    </mask>
  </defs>
  <path d="M 1416 218  L 1416 551  L 451 551  L 451 161  L 503 161  " stroke-width="2" stroke-dasharray="0" stroke="rgba(85, 85, 85, 1)" fill="none" class="stroke" mask="url(#Clip6)" />
  <path d="M 1416 216  A 3.5 3.5 0 0 0 1412.5 219.5 A 3.5 3.5 0 0 0 1416 223 A 3.5 3.5 0 0 0 1419.5 219.5 A 3.5 3.5 0 0 0 1416 216 Z M 497.89289321881347 156.70710678118655  L 502.1857864376269 161  L 497.89289321881347 165.29289321881345  L 499.3071067811866 166.70710678118655  L 504.3071067811866 161.70710678118655  L 505.01421356237313 161  L 504.3071067811866 160.29289321881345  L 499.3071067811866 155.29289321881345  L 497.89289321881347 156.70710678118655  Z " fill-rule="nonzero" fill="rgba(85, 85, 85, 1)" stroke="none" class="fill" mask="url(#Clip6)" />
</svg>