<?xml version="1.0" encoding="utf-8"?>
<svg version="1.1" xmlns:xlink="http://www.w3.org/1999/xlink" width="10px" height="257px" preserveAspectRatio="xMidYMin meet" viewBox="1085 216 8 257" xmlns="http://www.w3.org/2000/svg">
  <defs>
    <mask fill="white" id="Clip273">
      <path d="M 673 449  L 757 449  L 757 488  L 673 488  Z M 448 151  L 1099 151  L 1099 488  L 448 488  Z " fill-rule="evenodd" />
    </mask>
  </defs>
  <path d="M 1089 218  L 1089 468  L 451 468  L 451 161  L 503 161  " stroke-width="2" stroke-dasharray="0" stroke="rgba(85, 85, 85, 1)" fill="none" class="stroke" mask="url(#Clip273)" />
  <path d="M 1089 216  A 3.5 3.5 0 0 0 1085.5 219.5 A 3.5 3.5 0 0 0 1089 223 A 3.5 3.5 0 0 0 1092.5 219.5 A 3.5 3.5 0 0 0 1089 216 Z M 497.89289321881347 156.70710678118655  L 502.1857864376269 161  L 497.89289321881347 165.29289321881345  L 499.3071067811866 166.70710678118655  L 504.3071067811866 161.70710678118655  L 505.01421356237313 161  L 504.3071067811866 160.29289321881345  L 499.3071067811866 155.29289321881345  L 497.89289321881347 156.70710678118655  Z " fill-rule="nonzero" fill="rgba(85, 85, 85, 1)" stroke="none" class="fill" mask="url(#Clip273)" />
</svg>