<?xml version="1.0" encoding="utf-8"?>
<svg version="1.1" xmlns:xlink="http://www.w3.org/1999/xlink" width="1010px" height="10px" preserveAspectRatio="xMinYMid meet" viewBox="420 2868 1010 8" xmlns="http://www.w3.org/2000/svg">
  <path d="M 1425 2815  L 1425 2872  L 425 2872  L 425 2488  L 503 2488  " stroke-width="2" stroke-dasharray="0" stroke="rgba(85, 85, 85, 1)" fill="none" class="stroke" />
  <path d="M 1425 2813  A 3.5 3.5 0 0 0 1421.5 2816.5 A 3.5 3.5 0 0 0 1425 2820 A 3.5 3.5 0 0 0 1428.5 2816.5 A 3.5 3.5 0 0 0 1425 2813 Z M 497.89289321881347 2483.7071067811867  L 502.1857864376268 2488  L 497.89289321881347 2492.2928932188133  L 499.3071067811866 2493.7071067811867  L 504.3071067811866 2488.7071067811867  L 505.01421356237324 2488  L 504.3071067811866 2487.2928932188133  L 499.3071067811866 2482.2928932188133  L 497.89289321881347 2483.7071067811867  Z " fill-rule="nonzero" fill="rgba(85, 85, 85, 1)" stroke="none" class="fill" />
</svg>