<?xml version="1.0" encoding="utf-8"?>
<svg version="1.1" xmlns:xlink="http://www.w3.org/1999/xlink" width="20px" height="20px" preserveAspectRatio="xMinYMid meet" viewBox="985 3989  20 18" xmlns="http://www.w3.org/2000/svg">
  <defs>
    <mask fill="white" id="clip171">
      <path d="M 844 3980  L 960 3980  L 960 4016  L 844 4016  Z M 796 3980  L 1007 3980  L 1007 4016  L 796 4016  Z " fill-rule="evenodd" />
    </mask>
  </defs>
  <path d="M 844 3998  L 808 3998  M 960 3998  L 995 3998  " stroke-width="2" stroke="#555555" fill="none" />
  <path d="M 809.5 3994.5  A 3.5 3.5 0 0 0 806 3998 A 3.5 3.5 0 0 0 809.5 4001.5 A 3.5 3.5 0 0 0 813 3998 A 3.5 3.5 0 0 0 809.5 3994.5 Z M 989.892893218813 3993.70710678119  L 994.185786437627 3998  L 989.892893218813 4002.29289321881  L 991.307106781187 4003.70710678119  L 996.307106781187 3998.70710678119  L 997.014213562373 3998  L 996.307106781187 3997.29289321881  L 991.307106781187 3992.29289321881  L 989.892893218813 3993.70710678119  Z " fill-rule="nonzero" fill="#555555" stroke="none" mask="url(#clip171)" />
</svg>