<?xml version="1.0" encoding="utf-8"?>
<svg version="1.1" xmlns:xlink="http://www.w3.org/1999/xlink" width="134px" height="10px" preserveAspectRatio="xMinYMid meet" viewBox="1181 157  134 8" xmlns="http://www.w3.org/2000/svg">
  <defs>
    <mask fill="white" id="clip10">
      <path d="M 1213.5 142  L 1276.5 142  L 1276.5 181  L 1213.5 181  Z M 1171 142  L 1320 142  L 1320 181  L 1171 181  Z " fill-rule="evenodd" />
    </mask>
  </defs>
  <path d="M 1213.5 161  L 1183 161  M 1276.5 161  L 1308 161  " stroke-width="2" stroke="#555555" fill="none" />
  <path d="M 1184.5 157.5  A 3.5 3.5 0 0 0 1181 161 A 3.5 3.5 0 0 0 1184.5 164.5 A 3.5 3.5 0 0 0 1188 161 A 3.5 3.5 0 0 0 1184.5 157.5 Z M 1302.89289321881 156.707106781187  L 1307.18578643763 161  L 1302.89289321881 165.292893218813  L 1304.30710678119 166.707106781187  L 1309.30710678119 161.707106781187  L 1310.01421356237 161  L 1309.30710678119 160.292893218813  L 1304.30710678119 155.292893218813  L 1302.89289321881 156.707106781187  Z " fill-rule="nonzero" fill="#555555" stroke="none" mask="url(#clip10)" />
</svg>