<?xml version="1.0" encoding="utf-8"?>
<svg version="1.1" xmlns:xlink="http://www.w3.org/1999/xlink" width="21px" height="20px" preserveAspectRatio="xMinYMid meet" viewBox="1174 152 21 18" xmlns="http://www.w3.org/2000/svg">
  <defs>
    <mask fill="white" id="Clip13">
      <path d="M 1213.5 142  L 1276.5 142  L 1276.5 181  L 1213.5 181  Z M 1171 142  L 1320 142  L 1320 181  L 1171 181  Z " fill-rule="evenodd" />
    </mask>
  </defs>
  <path d="M 1213.5 161  L 1183 161  M 1276.5 161  L 1308 161  " stroke-width="2" stroke-dasharray="0" stroke="rgba(85, 85, 85, 1)" fill="none" class="stroke" />
  <path d="M 1184.5 157.5  A 3.5 3.5 0 0 0 1181 161 A 3.5 3.5 0 0 0 1184.5 164.5 A 3.5 3.5 0 0 0 1188 161 A 3.5 3.5 0 0 0 1184.5 157.5 Z M 1302.8928932188135 156.70710678118655  L 1307.185786437627 161  L 1302.8928932188135 165.29289321881345  L 1304.3071067811863 166.70710678118655  L 1309.3071067811863 161.70710678118655  L 1310.0142135623728 161  L 1309.3071067811863 160.29289321881345  L 1304.3071067811863 155.29289321881345  L 1302.8928932188135 156.70710678118655  Z " fill-rule="nonzero" fill="rgba(85, 85, 85, 1)" stroke="none" class="fill" mask="url(#Clip13)" />
</svg>