<?xml version="1.0" encoding="utf-8"?>
<svg version="1.1" xmlns:xlink="http://www.w3.org/1999/xlink" width="20px" height="20px" preserveAspectRatio="xMinYMid meet" viewBox="1621 152 20 18" xmlns="http://www.w3.org/2000/svg">
  <defs>
    <mask fill="white" id="Clip14">
      <path d="M 1538.5 142  L 1601.5 142  L 1601.5 181  L 1538.5 181  Z M 1498 142  L 1643 142  L 1643 181  L 1498 181  Z " fill-rule="evenodd" />
    </mask>
  </defs>
  <path d="M 1538.5 161  L 1510 161  M 1601.5 161  L 1631 161  " stroke-width="2" stroke-dasharray="0" stroke="rgba(85, 85, 85, 1)" fill="none" class="stroke" />
  <path d="M 1511.5 157.5  A 3.5 3.5 0 0 0 1508 161 A 3.5 3.5 0 0 0 1511.5 164.5 A 3.5 3.5 0 0 0 1515 161 A 3.5 3.5 0 0 0 1511.5 157.5 Z M 1625.8928932188135 156.70710678118655  L 1630.185786437627 161  L 1625.8928932188135 165.29289321881345  L 1627.3071067811863 166.70710678118655  L 1632.3071067811863 161.70710678118655  L 1633.0142135623728 161  L 1632.3071067811863 160.29289321881345  L 1627.3071067811863 155.29289321881345  L 1625.8928932188135 156.70710678118655  Z " fill-rule="nonzero" fill="rgba(85, 85, 85, 1)" stroke="none" class="fill" mask="url(#Clip14)" />
</svg>