<?xml version="1.0" encoding="utf-8"?>
<svg version="1.1" xmlns:xlink="http://www.w3.org/1999/xlink" width="10px" height="369px" preserveAspectRatio="xMidYMin meet" viewBox="470 3993 8 369" xmlns="http://www.w3.org/2000/svg">
  <defs>
    <mask fill="white" id="Clip444">
      <path d="M 696 4338  L 780 4338  L 780 4377  L 696 4377  Z M 471 3988  L 1100 3988  L 1100 4377  L 471 4377  Z " fill-rule="evenodd" />
    </mask>
  </defs>
  <path d="M 1090 4055  L 1090 4357  L 474 4357  L 474 3998  L 504 3998  " stroke-width="2" stroke-dasharray="0" stroke="rgba(85, 85, 85, 1)" fill="none" class="stroke" mask="url(#Clip444)" />
  <path d="M 1090 4053  A 3.5 3.5 0 0 0 1086.5 4056.5 A 3.5 3.5 0 0 0 1090 4060 A 3.5 3.5 0 0 0 1093.5 4056.5 A 3.5 3.5 0 0 0 1090 4053 Z M 498.89289321881347 3993.7071067811867  L 503.1857864376268 3998  L 498.89289321881347 4002.2928932188133  L 500.3071067811866 4003.7071067811867  L 505.3071067811866 3998.7071067811867  L 506.01421356237324 3998  L 505.3071067811866 3997.2928932188133  L 500.3071067811866 3992.2928932188133  L 498.89289321881347 3993.7071067811867  Z " fill-rule="nonzero" fill="rgba(85, 85, 85, 1)" stroke="none" class="fill" mask="url(#Clip444)" />
</svg>