<?xml version="1.0" encoding="utf-8"?>
<svg version="1.1" xmlns:xlink="http://www.w3.org/1999/xlink" width="134px" height="10px" preserveAspectRatio="xMinYMid meet" viewBox="1182 3994 134 8" xmlns="http://www.w3.org/2000/svg">
  <defs>
    <mask fill="white" id="Clip179">
      <path d="M 1214.5 3979  L 1277.5 3979  L 1277.5 4018  L 1214.5 4018  Z M 1172 3979  L 1321 3979  L 1321 4018  L 1172 4018  Z " fill-rule="evenodd" />
    </mask>
  </defs>
  <path d="M 1214.5 3998  L 1184 3998  M 1277.5 3998  L 1309 3998  " stroke-width="2" stroke-dasharray="0" stroke="rgba(85, 85, 85, 1)" fill="none" class="stroke" />
  <path d="M 1185.5 3994.5  A 3.5 3.5 0 0 0 1182 3998 A 3.5 3.5 0 0 0 1185.5 4001.5 A 3.5 3.5 0 0 0 1189 3998 A 3.5 3.5 0 0 0 1185.5 3994.5 Z M 1303.8928932188135 3993.7071067811867  L 1308.1857864376268 3998  L 1303.8928932188135 4002.2928932188133  L 1305.3071067811863 4003.7071067811867  L 1310.3071067811863 3998.7071067811867  L 1311.014213562373 3998  L 1310.3071067811863 3997.2928932188133  L 1305.3071067811863 3992.2928932188133  L 1303.8928932188135 3993.7071067811867  Z " fill-rule="nonzero" fill="rgba(85, 85, 85, 1)" stroke="none" class="fill" mask="url(#Clip179)" />
</svg>