<?xml version="1.0" encoding="utf-8"?>
<svg version="1.1" xmlns:xlink="http://www.w3.org/1999/xlink" width="21px" height="20px" preserveAspectRatio="xMinYMid meet" viewBox="1175 3989  21 18" xmlns="http://www.w3.org/2000/svg">
  <defs>
    <mask fill="white" id="clip179">
      <path d="M 1214.5 3979  L 1277.5 3979  L 1277.5 4018  L 1214.5 4018  Z M 1172 3979  L 1321 3979  L 1321 4018  L 1172 4018  Z " fill-rule="evenodd" />
    </mask>
  </defs>
  <path d="M 1214.5 3998  L 1184 3998  M 1277.5 3998  L 1309 3998  " stroke-width="2" stroke="#555555" fill="none" />
  <path d="M 1185.5 3994.5  A 3.5 3.5 0 0 0 1182 3998 A 3.5 3.5 0 0 0 1185.5 4001.5 A 3.5 3.5 0 0 0 1189 3998 A 3.5 3.5 0 0 0 1185.5 3994.5 Z M 1303.89289321881 3993.70710678119  L 1308.18578643763 3998  L 1303.89289321881 4002.29289321881  L 1305.30710678119 4003.70710678119  L 1310.30710678119 3998.70710678119  L 1311.01421356237 3998  L 1310.30710678119 3997.29289321881  L 1305.30710678119 3992.29289321881  L 1303.89289321881 3993.70710678119  Z " fill-rule="nonzero" fill="#555555" stroke="none" mask="url(#clip179)" />
</svg>