<?xml version="1.0" encoding="utf-8"?>
<svg version="1.1" xmlns:xlink="http://www.w3.org/1999/xlink" width="20px" height="20px" preserveAspectRatio="xMinYMid meet" viewBox="1622 3989  20 18" xmlns="http://www.w3.org/2000/svg">
  <defs>
    <mask fill="white" id="clip183">
      <path d="M 1566 3979  L 1608 3979  L 1608 4018  L 1566 4018  Z M 1529 3979  L 1644 3979  L 1644 4018  L 1529 4018  Z " fill-rule="evenodd" />
    </mask>
  </defs>
  <path d="M 1566 3998  L 1541 3998  M 1608 3998  L 1632 3998  " stroke-width="2" stroke="#555555" fill="none" />
  <path d="M 1542.5 3994.5  A 3.5 3.5 0 0 0 1539 3998 A 3.5 3.5 0 0 0 1542.5 4001.5 A 3.5 3.5 0 0 0 1546 3998 A 3.5 3.5 0 0 0 1542.5 3994.5 Z M 1626.89289321881 3993.70710678119  L 1631.18578643763 3998  L 1626.89289321881 4002.29289321881  L 1628.30710678119 4003.70710678119  L 1633.30710678119 3998.70710678119  L 1634.01421356237 3998  L 1633.30710678119 3997.29289321881  L 1628.30710678119 3992.29289321881  L 1626.89289321881 3993.70710678119  Z " fill-rule="nonzero" fill="#555555" stroke="none" mask="url(#clip183)" />
</svg>