<?xml version="1.0" encoding="utf-8"?>
<svg version="1.1" xmlns:xlink="http://www.w3.org/1999/xlink" width="20px" height="20px" preserveAspectRatio="xMinYMid meet" viewBox="1622 3989 20 18" xmlns="http://www.w3.org/2000/svg">
  <defs>
    <mask fill="white" id="Clip453">
      <path d="M 1566 3979  L 1608 3979  L 1608 4018  L 1566 4018  Z M 1529 3979  L 1644 3979  L 1644 4018  L 1529 4018  Z " fill-rule="evenodd" />
    </mask>
  </defs>
  <path d="M 1566 3998  L 1541 3998  M 1608 3998  L 1632 3998  " stroke-width="2" stroke-dasharray="0" stroke="rgba(85, 85, 85, 1)" fill="none" class="stroke" />
  <path d="M 1542.5 3994.5  A 3.5 3.5 0 0 0 1539 3998 A 3.5 3.5 0 0 0 1542.5 4001.5 A 3.5 3.5 0 0 0 1546 3998 A 3.5 3.5 0 0 0 1542.5 3994.5 Z M 1626.8928932188135 3993.7071067811867  L 1631.1857864376268 3998  L 1626.8928932188135 4002.2928932188133  L 1628.3071067811863 4003.7071067811867  L 1633.3071067811863 3998.7071067811867  L 1634.014213562373 3998  L 1633.3071067811863 3997.2928932188133  L 1628.3071067811863 3992.2928932188133  L 1626.8928932188135 3993.7071067811867  Z " fill-rule="nonzero" fill="rgba(85, 85, 85, 1)" stroke="none" class="fill" mask="url(#Clip453)" />
</svg>