<?xml version="1.0" encoding="utf-8"?>
<svg version="1.1" xmlns:xlink="http://www.w3.org/1999/xlink" width="10px" height="75px" preserveAspectRatio="xMidYMin meet" viewBox="1420 1194 8 75" xmlns="http://www.w3.org/2000/svg">
  <defs>
    <mask fill="white" id="Clip15">
      <path d="M 1404 1249  L 1446 1249  L 1446 1288  L 1404 1288  Z M 1404 1184  L 1446 1184  L 1446 1354  L 1404 1354  Z " fill-rule="evenodd" />
    </mask>
  </defs>
  <path d="M 1424 1196  L 1424 1264  L 1425 1264  L 1425 1343  " stroke-width="2" stroke-dasharray="0" stroke="rgba(85, 85, 85, 1)" fill="none" class="stroke" mask="url(#Clip15)" />
  <path d="M 1424 1194  A 3.5 3.5 0 0 0 1420.5 1197.5 A 3.5 3.5 0 0 0 1424 1201 A 3.5 3.5 0 0 0 1427.5 1197.5 A 3.5 3.5 0 0 0 1424 1194 Z M 1429.2928932188136 1337.8928932188135  L 1425 1342.185786437627  L 1420.7071067811864 1337.8928932188135  L 1419.2928932188136 1339.3071067811863  L 1424.2928932188136 1344.3071067811863  L 1425 1345.0142135623728  L 1425.7071067811864 1344.3071067811863  L 1430.7071067811864 1339.3071067811863  L 1429.2928932188136 1337.8928932188135  Z " fill-rule="nonzero" fill="rgba(85, 85, 85, 1)" stroke="none" class="fill" mask="url(#Clip15)" />
</svg>