<?xml version="1.0" encoding="utf-8"?>
<svg version="1.1" xmlns:xlink="http://www.w3.org/1999/xlink" width="20px" height="20px" preserveAspectRatio="xMinYMid meet" viewBox="2194 3989  20 18" xmlns="http://www.w3.org/2000/svg">
  <defs>
    <mask fill="white" id="clip186">
      <path d="M 2148 3979  L 2190 3979  L 2190 4018  L 2148 4018  Z M 2121 3979  L 2216 3979  L 2216 4018  L 2121 4018  Z " fill-rule="evenodd" />
    </mask>
  </defs>
  <path d="M 2148 3998  L 2133 3998  M 2190 3998  L 2204 3998  " stroke-width="2" stroke="#555555" fill="none" />
  <path d="M 2134.5 3994.5  A 3.5 3.5 0 0 0 2131 3998 A 3.5 3.5 0 0 0 2134.5 4001.5 A 3.5 3.5 0 0 0 2138 3998 A 3.5 3.5 0 0 0 2134.5 3994.5 Z M 2198.89289321881 3993.70710678119  L 2203.18578643763 3998  L 2198.89289321881 4002.29289321881  L 2200.30710678119 4003.70710678119  L 2205.30710678119 3998.70710678119  L 2206.01421356237 3998  L 2205.30710678119 3997.29289321881  L 2200.30710678119 3992.29289321881  L 2198.89289321881 3993.70710678119  Z " fill-rule="nonzero" fill="#555555" stroke="none" mask="url(#clip186)" />
</svg>