<?xml version="1.0" encoding="utf-8"?>
<svg version="1.1" xmlns:xlink="http://www.w3.org/1999/xlink" width="21px" height="20px" preserveAspectRatio="xMinYMid meet" viewBox="2124 3989 21 18" xmlns="http://www.w3.org/2000/svg">
  <defs>
    <mask fill="white" id="Clip455">
      <path d="M 2148 3979  L 2190 3979  L 2190 4018  L 2148 4018  Z M 2121 3979  L 2216 3979  L 2216 4018  L 2121 4018  Z " fill-rule="evenodd" />
    </mask>
  </defs>
  <path d="M 2148 3998  L 2133 3998  M 2190 3998  L 2204 3998  " stroke-width="2" stroke-dasharray="0" stroke="rgba(85, 85, 85, 1)" fill="none" class="stroke" />
  <path d="M 2134.5 3994.5  A 3.5 3.5 0 0 0 2131 3998 A 3.5 3.5 0 0 0 2134.5 4001.5 A 3.5 3.5 0 0 0 2138 3998 A 3.5 3.5 0 0 0 2134.5 3994.5 Z M 2198.8928932188132 3993.7071067811867  L 2203.1857864376266 3998  L 2198.8928932188132 4002.2928932188133  L 2200.3071067811866 4003.7071067811867  L 2205.3071067811866 3998.7071067811867  L 2206.0142135623732 3998  L 2205.3071067811866 3997.2928932188133  L 2200.3071067811866 3992.2928932188133  L 2198.8928932188132 3993.7071067811867  Z " fill-rule="nonzero" fill="rgba(85, 85, 85, 1)" stroke="none" class="fill" mask="url(#Clip455)" />
</svg>