<?xml version="1.0" encoding="utf-8"?>
<svg version="1.1" xmlns:xlink="http://www.w3.org/1999/xlink" width="20px" height="20px" preserveAspectRatio="xMinYMid meet" viewBox="2008 4111 20 18" xmlns="http://www.w3.org/2000/svg">
  <defs>
    <mask fill="white" id="Clip194">
      <path d="M 1997 4068  L 2039 4068  L 2039 4107  L 1997 4107  Z M 1997 4043  L 2039 4043  L 2039 4132  L 1997 4132  Z " fill-rule="evenodd" />
    </mask>
  </defs>
  <path d="M 2017 4055  L 2017 4087  L 2018 4087  L 2018 4121  " stroke-width="2" stroke-dasharray="0" stroke="rgba(85, 85, 85, 1)" fill="none" class="stroke" mask="url(#Clip194)" />
  <path d="M 2017 4053  A 3.5 3.5 0 0 0 2013.5 4056.5 A 3.5 3.5 0 0 0 2017 4060 A 3.5 3.5 0 0 0 2020.5 4056.5 A 3.5 3.5 0 0 0 2017 4053 Z M 2022.2928932188136 4115.892893218814  L 2018 4120.185786437627  L 2013.7071067811864 4115.892893218814  L 2012.2928932188136 4117.307106781187  L 2017.2928932188136 4122.307106781187  L 2018 4123.014213562374  L 2018.7071067811864 4122.307106781187  L 2023.7071067811864 4117.307106781187  L 2022.2928932188136 4115.892893218814  Z " fill-rule="nonzero" fill="rgba(85, 85, 85, 1)" stroke="none" class="fill" mask="url(#Clip194)" />
</svg>