<?xml version="1.0" encoding="utf-8"?>
<svg version="1.1" xmlns:xlink="http://www.w3.org/1999/xlink" width="11px" height="10px" preserveAspectRatio="xMinYMid meet" viewBox="2012 4083  11 8" xmlns="http://www.w3.org/2000/svg">
  <defs>
    <mask fill="white" id="clip188">
      <path d="M 1997 4068  L 2039 4068  L 2039 4107  L 1997 4107  Z M 1997 4043  L 2039 4043  L 2039 4132  L 1997 4132  Z " fill-rule="evenodd" />
    </mask>
  </defs>
  <path d="M 2017 4055  L 2017 4087  L 2018 4087  L 2018 4121  " stroke-width="2" stroke="#555555" fill="none" mask="url(#clip188)" />
  <path d="M 2017 4053  A 3.5 3.5 0 0 0 2013.5 4056.5 A 3.5 3.5 0 0 0 2017 4060 A 3.5 3.5 0 0 0 2020.5 4056.5 A 3.5 3.5 0 0 0 2017 4053 Z M 2022.29289321881 4115.89289321881  L 2018 4120.18578643763  L 2013.70710678119 4115.89289321881  L 2012.29289321881 4117.30710678119  L 2017.29289321881 4122.30710678119  L 2018 4123.01421356237  L 2018.70710678119 4122.30710678119  L 2023.70710678119 4117.30710678119  L 2022.29289321881 4115.89289321881  Z " fill-rule="nonzero" fill="#555555" stroke="none" mask="url(#clip188)" />
</svg>