<?xml version="1.0" encoding="utf-8"?>
<svg version="1.1" xmlns:xlink="http://www.w3.org/1999/xlink" width="20px" height="21px" preserveAspectRatio="xMidYMin meet" viewBox="2569 4046 18 21" xmlns="http://www.w3.org/2000/svg">
  <defs>
    <mask fill="white" id="Clip466">
      <path d="M 2546.5 4068  L 2609.5 4068  L 2609.5 4107  L 2546.5 4107  Z M 2546.5 4043  L 2609.5 4043  L 2609.5 4132  L 2546.5 4132  Z " fill-rule="evenodd" />
    </mask>
  </defs>
  <path d="M 2578 4068  L 2578 4055  M 2578 4107  L 2578 4121  " stroke-width="2" stroke-dasharray="0" stroke="rgba(85, 85, 85, 1)" fill="none" class="stroke" />
  <path d="M 2578 4053  A 3.5 3.5 0 0 0 2574.5 4056.5 A 3.5 3.5 0 0 0 2578 4060 A 3.5 3.5 0 0 0 2581.5 4056.5 A 3.5 3.5 0 0 0 2578 4053 Z M 2582.2928932188133 4115.892893218814  L 2578 4120.185786437627  L 2573.7071067811867 4115.892893218814  L 2572.2928932188133 4117.307106781187  L 2577.2928932188133 4122.307106781187  L 2578 4123.014213562374  L 2578.7071067811867 4122.307106781187  L 2583.7071067811867 4117.307106781187  L 2582.2928932188133 4115.892893218814  Z " fill-rule="nonzero" fill="rgba(85, 85, 85, 1)" stroke="none" class="fill" mask="url(#Clip466)" />
</svg>