<?xml version="1.0" encoding="utf-8"?>
<svg version="1.1" xmlns:xlink="http://www.w3.org/1999/xlink" width="20px" height="21px" preserveAspectRatio="xMidYMin meet" viewBox="2569 4046  18 21" xmlns="http://www.w3.org/2000/svg">
  <defs>
    <mask fill="white" id="clip196">
      <path d="M 2546.5 4068  L 2609.5 4068  L 2609.5 4107  L 2546.5 4107  Z M 2546.5 4043  L 2609.5 4043  L 2609.5 4132  L 2546.5 4132  Z " fill-rule="evenodd" />
    </mask>
  </defs>
  <path d="M 2578 4068  L 2578 4055  M 2578 4107  L 2578 4121  " stroke-width="2" stroke="#555555" fill="none" />
  <path d="M 2578 4053  A 3.5 3.5 0 0 0 2574.5 4056.5 A 3.5 3.5 0 0 0 2578 4060 A 3.5 3.5 0 0 0 2581.5 4056.5 A 3.5 3.5 0 0 0 2578 4053 Z M 2582.29289321881 4115.89289321881  L 2578 4120.18578643763  L 2573.70710678119 4115.89289321881  L 2572.29289321881 4117.30710678119  L 2577.29289321881 4122.30710678119  L 2578 4123.01421356237  L 2578.70710678119 4122.30710678119  L 2583.70710678119 4117.30710678119  L 2582.29289321881 4115.89289321881  Z " fill-rule="nonzero" fill="#555555" stroke="none" mask="url(#clip196)" />
</svg>