<?xml version="1.0" encoding="utf-8"?>
<svg version="1.1" xmlns:xlink="http://www.w3.org/1999/xlink" width="20px" height="20px" preserveAspectRatio="xMinYMid meet" viewBox="2194 3577  20 18" xmlns="http://www.w3.org/2000/svg">
  <defs>
    <mask fill="white" id="clip1765">
      <path d="M 2148 3567  L 2190 3567  L 2190 3606  L 2148 3606  Z M 2121 3567  L 2216 3567  L 2216 3606  L 2121 3606  Z " fill-rule="evenodd" />
    </mask>
  </defs>
  <path d="M 2148 3586  L 2133 3586  M 2190 3586  L 2204 3586  " stroke-width="2" stroke="#555555" fill="none" />
  <path d="M 2134.5 3582.5  A 3.5 3.5 0 0 0 2131 3586 A 3.5 3.5 0 0 0 2134.5 3589.5 A 3.5 3.5 0 0 0 2138 3586 A 3.5 3.5 0 0 0 2134.5 3582.5 Z M 2198.89289321881 3581.70710678119  L 2203.18578643763 3586  L 2198.89289321881 3590.29289321881  L 2200.30710678119 3591.70710678119  L 2205.30710678119 3586.70710678119  L 2206.01421356237 3586  L 2205.30710678119 3585.29289321881  L 2200.30710678119 3580.29289321881  L 2198.89289321881 3581.70710678119  Z " fill-rule="nonzero" fill="#555555" stroke="none" mask="url(#clip1765)" />
</svg>