<?xml version="1.0" encoding="utf-8"?>
<svg version="1.1" xmlns:xlink="http://www.w3.org/1999/xlink" width="20px" height="20px" preserveAspectRatio="xMinYMid meet" viewBox="2777 3577  20 18" xmlns="http://www.w3.org/2000/svg">
  <defs>
    <mask fill="white" id="clip1773">
      <path d="M 2708.5 3567  L 2771.5 3567  L 2771.5 3606  L 2708.5 3606  Z M 2682 3567  L 2799 3567  L 2799 3606  L 2682 3606  Z " fill-rule="evenodd" />
    </mask>
  </defs>
  <path d="M 2708.5 3586  L 2694 3586  M 2771.5 3586  L 2787 3586  " stroke-width="2" stroke="#555555" fill="none" />
  <path d="M 2695.5 3582.5  A 3.5 3.5 0 0 0 2692 3586 A 3.5 3.5 0 0 0 2695.5 3589.5 A 3.5 3.5 0 0 0 2699 3586 A 3.5 3.5 0 0 0 2695.5 3582.5 Z M 2781.89289321881 3581.70710678119  L 2786.18578643763 3586  L 2781.89289321881 3590.29289321881  L 2783.30710678119 3591.70710678119  L 2788.30710678119 3586.70710678119  L 2789.01421356237 3586  L 2788.30710678119 3585.29289321881  L 2783.30710678119 3580.29289321881  L 2781.89289321881 3581.70710678119  Z " fill-rule="nonzero" fill="#555555" stroke="none" mask="url(#clip1773)" />
</svg>