<?xml version="1.0" encoding="utf-8"?>
<svg version="1.1" xmlns:xlink="http://www.w3.org/1999/xlink" width="21px" height="20px" preserveAspectRatio="xMinYMid meet" viewBox="2450 4169 21 18" xmlns="http://www.w3.org/2000/svg">
  <defs>
    <mask fill="white" id="Clip203">
      <path d="M 2303 4159  L 2345 4159  L 2345 4198  L 2303 4198  Z M 2298 4043  L 2474 4043  L 2474 4198  L 2298 4198  Z " fill-rule="evenodd" />
    </mask>
  </defs>
  <path d="M 2463 4178  L 2308 4178  L 2308 4055  " stroke-width="2" stroke-dasharray="0" stroke="rgba(85, 85, 85, 1)" fill="none" class="stroke" mask="url(#Clip203)" />
  <path d="M 2461.5 4174.5  A 3.5 3.5 0 0 0 2458 4178 A 3.5 3.5 0 0 0 2461.5 4181.5 A 3.5 3.5 0 0 0 2465 4178 A 3.5 3.5 0 0 0 2461.5 4174.5 Z M 2303.7071067811867 4060.1071067811868  L 2308 4055.8142135623734  L 2312.2928932188133 4060.1071067811868  L 2313.7071067811867 4058.6928932188134  L 2308.7071067811867 4053.6928932188134  L 2308 4052.9857864376268  L 2307.2928932188133 4053.6928932188134  L 2302.2928932188133 4058.6928932188134  L 2303.7071067811867 4060.1071067811868  Z " fill-rule="nonzero" fill="rgba(85, 85, 85, 1)" stroke="none" class="fill" mask="url(#Clip203)" />
</svg>