<?xml version="1.0" encoding="utf-8"?>
<svg version="1.1" xmlns:xlink="http://www.w3.org/1999/xlink" width="20px" height="20px" preserveAspectRatio="xMinYMid meet" viewBox="985 4496 20 18" xmlns="http://www.w3.org/2000/svg">
  <defs>
    <mask fill="white" id="Clip479">
      <path d="M 844 4487  L 960 4487  L 960 4523  L 844 4523  Z M 796 4487  L 1007 4487  L 1007 4523  L 796 4523  Z " fill-rule="evenodd" />
    </mask>
  </defs>
  <path d="M 844 4505  L 808 4505  M 960 4505  L 995 4505  " stroke-width="2" stroke-dasharray="0" stroke="rgba(85, 85, 85, 1)" fill="none" class="stroke" />
  <path d="M 809.5 4501.5  A 3.5 3.5 0 0 0 806 4505 A 3.5 3.5 0 0 0 809.5 4508.5 A 3.5 3.5 0 0 0 813 4505 A 3.5 3.5 0 0 0 809.5 4501.5 Z M 989.8928932188135 4500.707106781187  L 994.1857864376268 4505  L 989.8928932188135 4509.292893218813  L 991.3071067811866 4510.707106781187  L 996.3071067811866 4505.707106781187  L 997.0142135623732 4505  L 996.3071067811866 4504.292893218813  L 991.3071067811866 4499.292893218813  L 989.8928932188135 4500.707106781187  Z " fill-rule="nonzero" fill="rgba(85, 85, 85, 1)" stroke="none" class="fill" mask="url(#Clip479)" />
</svg>