<?xml version="1.0" encoding="utf-8"?>
<svg version="1.1" xmlns:xlink="http://www.w3.org/1999/xlink" width="20px" height="20px" preserveAspectRatio="xMinYMid meet" viewBox="985 4496  20 18" xmlns="http://www.w3.org/2000/svg">
  <defs>
    <mask fill="white" id="clip209">
      <path d="M 844 4487  L 960 4487  L 960 4523  L 844 4523  Z M 796 4487  L 1007 4487  L 1007 4523  L 796 4523  Z " fill-rule="evenodd" />
    </mask>
  </defs>
  <path d="M 844 4505  L 808 4505  M 960 4505  L 995 4505  " stroke-width="2" stroke="#555555" fill="none" />
  <path d="M 809.5 4501.5  A 3.5 3.5 0 0 0 806 4505 A 3.5 3.5 0 0 0 809.5 4508.5 A 3.5 3.5 0 0 0 813 4505 A 3.5 3.5 0 0 0 809.5 4501.5 Z M 989.892893218813 4500.70710678119  L 994.185786437627 4505  L 989.892893218813 4509.29289321881  L 991.307106781187 4510.70710678119  L 996.307106781187 4505.70710678119  L 997.014213562373 4505  L 996.307106781187 4504.29289321881  L 991.307106781187 4499.29289321881  L 989.892893218813 4500.70710678119  Z " fill-rule="nonzero" fill="#555555" stroke="none" mask="url(#clip209)" />
</svg>