<?xml version="1.0" encoding="utf-8"?>
<svg version="1.1" xmlns:xlink="http://www.w3.org/1999/xlink" width="852px" height="10px" preserveAspectRatio="xMinYMid meet" viewBox="1731 4347 852 8" xmlns="http://www.w3.org/2000/svg">
  <defs>
    <mask fill="white" id="Clip206">
      <path d="M 2046 4332  L 2088 4332  L 2088 4371  L 2046 4371  Z M 1726 4043  L 2588 4043  L 2588 4371  L 1726 4371  Z " fill-rule="evenodd" />
    </mask>
  </defs>
  <path d="M 2578 4235  L 2578 4351  L 1736 4351  L 1736 4055  " stroke-width="2" stroke-dasharray="0" stroke="rgba(85, 85, 85, 1)" fill="none" class="stroke" mask="url(#Clip206)" />
  <path d="M 2578 4233  A 3.5 3.5 0 0 0 2574.5 4236.5 A 3.5 3.5 0 0 0 2578 4240 A 3.5 3.5 0 0 0 2581.5 4236.5 A 3.5 3.5 0 0 0 2578 4233 Z M 1731.7071067811864 4060.1071067811868  L 1736 4055.814213562373  L 1740.2928932188136 4060.1071067811868  L 1741.7071067811864 4058.6928932188134  L 1736.7071067811864 4053.6928932188134  L 1736 4052.985786437627  L 1735.2928932188136 4053.6928932188134  L 1730.2928932188136 4058.6928932188134  L 1731.7071067811864 4060.1071067811868  Z " fill-rule="nonzero" fill="rgba(85, 85, 85, 1)" stroke="none" class="fill" mask="url(#Clip206)" />
</svg>