<?xml version="1.0" encoding="utf-8"?>
<svg version="1.1" xmlns:xlink="http://www.w3.org/1999/xlink" width="20px" height="20px" preserveAspectRatio="xMinYMid meet" viewBox="494 4496  20 18" xmlns="http://www.w3.org/2000/svg">
  <defs>
    <mask fill="white" id="clip215">
      <path d="M 624 4769  L 708 4769  L 708 4808  L 624 4808  Z M 399 4495  L 1100 4495  L 1100 4808  L 399 4808  Z " fill-rule="evenodd" />
    </mask>
  </defs>
  <path d="M 1090 4562  L 1090 4788  L 402 4788  L 402 4505  L 504 4505  " stroke-width="2" stroke="#555555" fill="none" mask="url(#clip215)" />
  <path d="M 1090 4560  A 3.5 3.5 0 0 0 1086.5 4563.5 A 3.5 3.5 0 0 0 1090 4567 A 3.5 3.5 0 0 0 1093.5 4563.5 A 3.5 3.5 0 0 0 1090 4560 Z M 498.892893218813 4500.70710678119  L 503.185786437627 4505  L 498.892893218813 4509.29289321881  L 500.307106781187 4510.70710678119  L 505.307106781187 4505.70710678119  L 506.014213562373 4505  L 505.307106781187 4504.29289321881  L 500.307106781187 4499.29289321881  L 498.892893218813 4500.70710678119  Z " fill-rule="nonzero" fill="#555555" stroke="none" mask="url(#clip215)" />
</svg>