<?xml version="1.0" encoding="utf-8"?>
<svg version="1.1" xmlns:xlink="http://www.w3.org/1999/xlink" width="10px" height="81px" preserveAspectRatio="xMidYMin meet" viewBox="2574 3821  8 81" xmlns="http://www.w3.org/2000/svg">
  <defs>
    <mask fill="white" id="clip1781">
      <path d="M 2046 3878  L 2088 3878  L 2088 3917  L 2046 3917  Z M 1726 3631  L 2588 3631  L 2588 3917  L 1726 3917  Z " fill-rule="evenodd" />
    </mask>
  </defs>
  <path d="M 2578 3823  L 2578 3897  L 1736 3897  L 1736 3643  " stroke-width="2" stroke="#555555" fill="none" mask="url(#clip1781)" />
  <path d="M 2578 3821  A 3.5 3.5 0 0 0 2574.5 3824.5 A 3.5 3.5 0 0 0 2578 3828 A 3.5 3.5 0 0 0 2581.5 3824.5 A 3.5 3.5 0 0 0 2578 3821 Z M 1731.70710678119 3648.10710678119  L 1736 3643.81421356237  L 1740.29289321881 3648.10710678119  L 1741.70710678119 3646.69289321881  L 1736.70710678119 3641.69289321881  L 1736 3640.98578643763  L 1735.29289321881 3641.69289321881  L 1730.29289321881 3646.69289321881  L 1731.70710678119 3648.10710678119  Z " fill-rule="nonzero" fill="#555555" stroke="none" mask="url(#clip1781)" />
</svg>