<?xml version="1.0" encoding="utf-8"?>
<svg version="1.1" xmlns:xlink="http://www.w3.org/1999/xlink" width="21px" height="20px" preserveAspectRatio="xMinYMid meet" viewBox="1175 4496  21 18" xmlns="http://www.w3.org/2000/svg">
  <defs>
    <mask fill="white" id="clip217">
      <path d="M 1214.5 4486  L 1277.5 4486  L 1277.5 4525  L 1214.5 4525  Z M 1172 4486  L 1321 4486  L 1321 4525  L 1172 4525  Z " fill-rule="evenodd" />
    </mask>
  </defs>
  <path d="M 1214.5 4505  L 1184 4505  M 1277.5 4505  L 1309 4505  " stroke-width="2" stroke="#555555" fill="none" />
  <path d="M 1185.5 4501.5  A 3.5 3.5 0 0 0 1182 4505 A 3.5 3.5 0 0 0 1185.5 4508.5 A 3.5 3.5 0 0 0 1189 4505 A 3.5 3.5 0 0 0 1185.5 4501.5 Z M 1303.89289321881 4500.70710678119  L 1308.18578643763 4505  L 1303.89289321881 4509.29289321881  L 1305.30710678119 4510.70710678119  L 1310.30710678119 4505.70710678119  L 1311.01421356237 4505  L 1310.30710678119 4504.29289321881  L 1305.30710678119 4499.29289321881  L 1303.89289321881 4500.70710678119  Z " fill-rule="nonzero" fill="#555555" stroke="none" mask="url(#clip217)" />
</svg>