<?xml version="1.0" encoding="utf-8"?>
<svg version="1.1" xmlns:xlink="http://www.w3.org/1999/xlink" width="134px" height="10px" preserveAspectRatio="xMinYMid meet" viewBox="1182 4501 134 8" xmlns="http://www.w3.org/2000/svg">
  <defs>
    <mask fill="white" id="Clip486">
      <path d="M 1214.5 4486  L 1277.5 4486  L 1277.5 4525  L 1214.5 4525  Z M 1172 4486  L 1321 4486  L 1321 4525  L 1172 4525  Z " fill-rule="evenodd" />
    </mask>
  </defs>
  <path d="M 1214.5 4505  L 1184 4505  M 1277.5 4505  L 1309 4505  " stroke-width="2" stroke-dasharray="0" stroke="rgba(85, 85, 85, 1)" fill="none" class="stroke" />
  <path d="M 1185.5 4501.5  A 3.5 3.5 0 0 0 1182 4505 A 3.5 3.5 0 0 0 1185.5 4508.5 A 3.5 3.5 0 0 0 1189 4505 A 3.5 3.5 0 0 0 1185.5 4501.5 Z M 1303.8928932188135 4500.707106781187  L 1308.1857864376268 4505  L 1303.8928932188135 4509.292893218813  L 1305.3071067811863 4510.707106781187  L 1310.3071067811863 4505.707106781187  L 1311.014213562373 4505  L 1310.3071067811863 4504.292893218813  L 1305.3071067811863 4499.292893218813  L 1303.8928932188135 4500.707106781187  Z " fill-rule="nonzero" fill="rgba(85, 85, 85, 1)" stroke="none" class="fill" mask="url(#Clip486)" />
</svg>