<?xml version="1.0" encoding="utf-8"?>
<svg version="1.1" xmlns:xlink="http://www.w3.org/1999/xlink" width="21px" height="20px" preserveAspectRatio="xMinYMid meet" viewBox="1175 4084  21 18" xmlns="http://www.w3.org/2000/svg">
  <defs>
    <mask fill="white" id="clip1796">
      <path d="M 1214.5 4074  L 1277.5 4074  L 1277.5 4113  L 1214.5 4113  Z M 1172 4074  L 1321 4074  L 1321 4113  L 1172 4113  Z " fill-rule="evenodd" />
    </mask>
  </defs>
  <path d="M 1214.5 4093  L 1184 4093  M 1277.5 4093  L 1309 4093  " stroke-width="2" stroke="#555555" fill="none" />
  <path d="M 1185.5 4089.5  A 3.5 3.5 0 0 0 1182 4093 A 3.5 3.5 0 0 0 1185.5 4096.5 A 3.5 3.5 0 0 0 1189 4093 A 3.5 3.5 0 0 0 1185.5 4089.5 Z M 1303.89289321881 4088.70710678119  L 1308.18578643763 4093  L 1303.89289321881 4097.29289321881  L 1305.30710678119 4098.70710678119  L 1310.30710678119 4093.70710678119  L 1311.01421356237 4093  L 1310.30710678119 4092.29289321881  L 1305.30710678119 4087.29289321881  L 1303.89289321881 4088.70710678119  Z " fill-rule="nonzero" fill="#555555" stroke="none" mask="url(#clip1796)" />
</svg>