<?xml version="1.0" encoding="utf-8"?>
<svg version="1.1" xmlns:xlink="http://www.w3.org/1999/xlink" width="21px" height="20px" preserveAspectRatio="xMinYMid meet" viewBox="1532 4496 21 18" xmlns="http://www.w3.org/2000/svg">
  <defs>
    <mask fill="white" id="Clip221">
      <path d="M 1566 4486  L 1608 4486  L 1608 4525  L 1566 4525  Z M 1529 4486  L 1644 4486  L 1644 4525  L 1529 4525  Z " fill-rule="evenodd" />
    </mask>
  </defs>
  <path d="M 1566 4505  L 1541 4505  M 1608 4505  L 1632 4505  " stroke-width="2" stroke-dasharray="0" stroke="rgba(85, 85, 85, 1)" fill="none" class="stroke" />
  <path d="M 1542.5 4501.5  A 3.5 3.5 0 0 0 1539 4505 A 3.5 3.5 0 0 0 1542.5 4508.5 A 3.5 3.5 0 0 0 1546 4505 A 3.5 3.5 0 0 0 1542.5 4501.5 Z M 1626.8928932188135 4500.707106781187  L 1631.1857864376268 4505  L 1626.8928932188135 4509.292893218813  L 1628.3071067811863 4510.707106781187  L 1633.3071067811863 4505.707106781187  L 1634.014213562373 4505  L 1633.3071067811863 4504.292893218813  L 1628.3071067811863 4499.292893218813  L 1626.8928932188135 4500.707106781187  Z " fill-rule="nonzero" fill="rgba(85, 85, 85, 1)" stroke="none" class="fill" mask="url(#Clip221)" />
</svg>