<?xml version="1.0" encoding="utf-8"?>
<svg version="1.1" xmlns:xlink="http://www.w3.org/1999/xlink" width="21px" height="20px" preserveAspectRatio="xMinYMid meet" viewBox="1532 4496  21 18" xmlns="http://www.w3.org/2000/svg">
  <defs>
    <mask fill="white" id="clip220">
      <path d="M 1566 4486  L 1608 4486  L 1608 4525  L 1566 4525  Z M 1529 4486  L 1644 4486  L 1644 4525  L 1529 4525  Z " fill-rule="evenodd" />
    </mask>
  </defs>
  <path d="M 1566 4505  L 1541 4505  M 1608 4505  L 1632 4505  " stroke-width="2" stroke="#555555" fill="none" />
  <path d="M 1542.5 4501.5  A 3.5 3.5 0 0 0 1539 4505 A 3.5 3.5 0 0 0 1542.5 4508.5 A 3.5 3.5 0 0 0 1546 4505 A 3.5 3.5 0 0 0 1542.5 4501.5 Z M 1626.89289321881 4500.70710678119  L 1631.18578643763 4505  L 1626.89289321881 4509.29289321881  L 1628.30710678119 4510.70710678119  L 1633.30710678119 4505.70710678119  L 1634.01421356237 4505  L 1633.30710678119 4504.29289321881  L 1628.30710678119 4499.29289321881  L 1626.89289321881 4500.70710678119  Z " fill-rule="nonzero" fill="#555555" stroke="none" mask="url(#clip220)" />
</svg>