<?xml version="1.0" encoding="utf-8"?>
<svg version="1.1" xmlns:xlink="http://www.w3.org/1999/xlink" width="10px" height="74px" preserveAspectRatio="xMidYMin meet" viewBox="1421 4560  8 74" xmlns="http://www.w3.org/2000/svg">
  <defs>
    <mask fill="white" id="clip222">
      <path d="M 1404 4575  L 1446 4575  L 1446 4614  L 1404 4614  Z M 1404 4550  L 1446 4550  L 1446 4639  L 1404 4639  Z " fill-rule="evenodd" />
    </mask>
  </defs>
  <path d="M 1425 4575  L 1425 4562  M 1425 4614  L 1425 4628  " stroke-width="2" stroke="#555555" fill="none" />
  <path d="M 1425 4560  A 3.5 3.5 0 0 0 1421.5 4563.5 A 3.5 3.5 0 0 0 1425 4567 A 3.5 3.5 0 0 0 1428.5 4563.5 A 3.5 3.5 0 0 0 1425 4560 Z M 1429.29289321881 4622.89289321881  L 1425 4627.18578643763  L 1420.70710678119 4622.89289321881  L 1419.29289321881 4624.30710678119  L 1424.29289321881 4629.30710678119  L 1425 4630.01421356237  L 1425.70710678119 4629.30710678119  L 1430.70710678119 4624.30710678119  L 1429.29289321881 4622.89289321881  Z " fill-rule="nonzero" fill="#555555" stroke="none" mask="url(#clip222)" />
</svg>