<?xml version="1.0" encoding="utf-8"?>
<svg version="1.1" xmlns:xlink="http://www.w3.org/1999/xlink" width="20px" height="20px" preserveAspectRatio="xMinYMid meet" viewBox="1415 4618 20 18" xmlns="http://www.w3.org/2000/svg">
  <defs>
    <mask fill="white" id="Clip225">
      <path d="M 1404 4575  L 1446 4575  L 1446 4614  L 1404 4614  Z M 1404 4550  L 1446 4550  L 1446 4639  L 1404 4639  Z " fill-rule="evenodd" />
    </mask>
  </defs>
  <path d="M 1425 4575  L 1425 4562  M 1425 4614  L 1425 4628  " stroke-width="2" stroke-dasharray="0" stroke="rgba(85, 85, 85, 1)" fill="none" class="stroke" />
  <path d="M 1425 4560  A 3.5 3.5 0 0 0 1421.5 4563.5 A 3.5 3.5 0 0 0 1425 4567 A 3.5 3.5 0 0 0 1428.5 4563.5 A 3.5 3.5 0 0 0 1425 4560 Z M 1429.2928932188136 4622.892893218814  L 1425 4627.185786437627  L 1420.7071067811864 4622.892893218814  L 1419.2928932188136 4624.307106781187  L 1424.2928932188136 4629.307106781187  L 1425 4630.014213562374  L 1425.7071067811864 4629.307106781187  L 1430.7071067811864 4624.307106781187  L 1429.2928932188136 4622.892893218814  Z " fill-rule="nonzero" fill="rgba(85, 85, 85, 1)" stroke="none" class="fill" mask="url(#Clip225)" />
</svg>