<?xml version="1.0" encoding="utf-8"?>
<svg version="1.1" xmlns:xlink="http://www.w3.org/1999/xlink" width="21px" height="20px" preserveAspectRatio="xMinYMid meet" viewBox="2124 4496 21 18" xmlns="http://www.w3.org/2000/svg">
  <defs>
    <mask fill="white" id="Clip496">
      <path d="M 2148 4486  L 2190 4486  L 2190 4525  L 2148 4525  Z M 2121 4486  L 2216 4486  L 2216 4525  L 2121 4525  Z " fill-rule="evenodd" />
    </mask>
  </defs>
  <path d="M 2148 4505  L 2133 4505  M 2190 4505  L 2204 4505  " stroke-width="2" stroke-dasharray="0" stroke="rgba(85, 85, 85, 1)" fill="none" class="stroke" />
  <path d="M 2134.5 4501.5  A 3.5 3.5 0 0 0 2131 4505 A 3.5 3.5 0 0 0 2134.5 4508.5 A 3.5 3.5 0 0 0 2138 4505 A 3.5 3.5 0 0 0 2134.5 4501.5 Z M 2198.8928932188132 4500.707106781187  L 2203.1857864376266 4505  L 2198.8928932188132 4509.292893218813  L 2200.3071067811866 4510.707106781187  L 2205.3071067811866 4505.707106781187  L 2206.0142135623732 4505  L 2205.3071067811866 4504.292893218813  L 2200.3071067811866 4499.292893218813  L 2198.8928932188132 4500.707106781187  Z " fill-rule="nonzero" fill="rgba(85, 85, 85, 1)" stroke="none" class="fill" mask="url(#Clip496)" />
</svg>