<?xml version="1.0" encoding="utf-8"?>
<svg version="1.1" xmlns:xlink="http://www.w3.org/1999/xlink" width="80px" height="10px" preserveAspectRatio="xMinYMid meet" viewBox="2131 4501  80 8" xmlns="http://www.w3.org/2000/svg">
  <defs>
    <mask fill="white" id="clip225">
      <path d="M 2148 4486  L 2190 4486  L 2190 4525  L 2148 4525  Z M 2121 4486  L 2216 4486  L 2216 4525  L 2121 4525  Z " fill-rule="evenodd" />
    </mask>
  </defs>
  <path d="M 2148 4505  L 2133 4505  M 2190 4505  L 2204 4505  " stroke-width="2" stroke="#555555" fill="none" />
  <path d="M 2134.5 4501.5  A 3.5 3.5 0 0 0 2131 4505 A 3.5 3.5 0 0 0 2134.5 4508.5 A 3.5 3.5 0 0 0 2138 4505 A 3.5 3.5 0 0 0 2134.5 4501.5 Z M 2198.89289321881 4500.70710678119  L 2203.18578643763 4505  L 2198.89289321881 4509.29289321881  L 2200.30710678119 4510.70710678119  L 2205.30710678119 4505.70710678119  L 2206.01421356237 4505  L 2205.30710678119 4504.29289321881  L 2200.30710678119 4499.29289321881  L 2198.89289321881 4500.70710678119  Z " fill-rule="nonzero" fill="#555555" stroke="none" mask="url(#clip225)" />
</svg>