<?xml version="1.0" encoding="utf-8"?>
<svg version="1.1" xmlns:xlink="http://www.w3.org/1999/xlink" width="10px" height="102px" preserveAspectRatio="xMidYMin meet" viewBox="1421 4148  8 102" xmlns="http://www.w3.org/2000/svg">
  <defs>
    <mask fill="white" id="clip1801">
      <path d="M 1404 4177  L 1446 4177  L 1446 4216  L 1404 4216  Z M 1404 4138  L 1446 4138  L 1446 4255  L 1404 4255  Z " fill-rule="evenodd" />
    </mask>
  </defs>
  <path d="M 1425 4177  L 1425 4150  M 1425 4216  L 1425 4244  " stroke-width="2" stroke="#555555" fill="none" />
  <path d="M 1425 4148  A 3.5 3.5 0 0 0 1421.5 4151.5 A 3.5 3.5 0 0 0 1425 4155 A 3.5 3.5 0 0 0 1428.5 4151.5 A 3.5 3.5 0 0 0 1425 4148 Z M 1429.29289321881 4238.89289321881  L 1425 4243.18578643763  L 1420.70710678119 4238.89289321881  L 1419.29289321881 4240.30710678119  L 1424.29289321881 4245.30710678119  L 1425 4246.01421356237  L 1425.70710678119 4245.30710678119  L 1430.70710678119 4240.30710678119  L 1429.29289321881 4238.89289321881  Z " fill-rule="nonzero" fill="#555555" stroke="none" mask="url(#clip1801)" />
</svg>