<?xml version="1.0" encoding="utf-8"?>
<svg version="1.1" xmlns:xlink="http://www.w3.org/1999/xlink" width="20px" height="21px" preserveAspectRatio="xMidYMin meet" viewBox="2569 4553  18 21" xmlns="http://www.w3.org/2000/svg">
  <defs>
    <mask fill="white" id="clip237">
      <path d="M 2546.5 4575  L 2609.5 4575  L 2609.5 4614  L 2546.5 4614  Z M 2546.5 4550  L 2609.5 4550  L 2609.5 4639  L 2546.5 4639  Z " fill-rule="evenodd" />
    </mask>
  </defs>
  <path d="M 2578 4575  L 2578 4562  M 2578 4614  L 2578 4628  " stroke-width="2" stroke="#555555" fill="none" />
  <path d="M 2578 4560  A 3.5 3.5 0 0 0 2574.5 4563.5 A 3.5 3.5 0 0 0 2578 4567 A 3.5 3.5 0 0 0 2581.5 4563.5 A 3.5 3.5 0 0 0 2578 4560 Z M 2582.29289321881 4622.89289321881  L 2578 4627.18578643763  L 2573.70710678119 4622.89289321881  L 2572.29289321881 4624.30710678119  L 2577.29289321881 4629.30710678119  L 2578 4630.01421356237  L 2578.70710678119 4629.30710678119  L 2583.70710678119 4624.30710678119  L 2582.29289321881 4622.89289321881  Z " fill-rule="nonzero" fill="#555555" stroke="none" mask="url(#clip237)" />
</svg>