<?xml version="1.0" encoding="utf-8"?>
<svg version="1.1" xmlns:xlink="http://www.w3.org/1999/xlink" width="20px" height="20px" preserveAspectRatio="xMinYMid meet" viewBox="2568 4618 20 18" xmlns="http://www.w3.org/2000/svg">
  <defs>
    <mask fill="white" id="Clip239">
      <path d="M 2546.5 4575  L 2609.5 4575  L 2609.5 4614  L 2546.5 4614  Z M 2546.5 4550  L 2609.5 4550  L 2609.5 4639  L 2546.5 4639  Z " fill-rule="evenodd" />
    </mask>
  </defs>
  <path d="M 2578 4575  L 2578 4562  M 2578 4614  L 2578 4628  " stroke-width="2" stroke-dasharray="0" stroke="rgba(85, 85, 85, 1)" fill="none" class="stroke" />
  <path d="M 2578 4560  A 3.5 3.5 0 0 0 2574.5 4563.5 A 3.5 3.5 0 0 0 2578 4567 A 3.5 3.5 0 0 0 2581.5 4563.5 A 3.5 3.5 0 0 0 2578 4560 Z M 2582.2928932188133 4622.892893218814  L 2578 4627.185786437627  L 2573.7071067811867 4622.892893218814  L 2572.2928932188133 4624.307106781187  L 2577.2928932188133 4629.307106781187  L 2578 4630.014213562374  L 2578.7071067811867 4629.307106781187  L 2583.7071067811867 4624.307106781187  L 2582.2928932188133 4622.892893218814  Z " fill-rule="nonzero" fill="rgba(85, 85, 85, 1)" stroke="none" class="fill" mask="url(#Clip239)" />
</svg>