<?xml version="1.0" encoding="utf-8"?>
<svg version="1.1" xmlns:xlink="http://www.w3.org/1999/xlink" width="102px" height="10px" preserveAspectRatio="xMinYMid meet" viewBox="2692 4501 102 8" xmlns="http://www.w3.org/2000/svg">
  <defs>
    <mask fill="white" id="Clip236">
      <path d="M 2708.5 4486  L 2771.5 4486  L 2771.5 4525  L 2708.5 4525  Z M 2682 4486  L 2799 4486  L 2799 4525  L 2682 4525  Z " fill-rule="evenodd" />
    </mask>
  </defs>
  <path d="M 2708.5 4505  L 2694 4505  M 2771.5 4505  L 2787 4505  " stroke-width="2" stroke-dasharray="0" stroke="rgba(85, 85, 85, 1)" fill="none" class="stroke" />
  <path d="M 2695.5 4501.5  A 3.5 3.5 0 0 0 2692 4505 A 3.5 3.5 0 0 0 2695.5 4508.5 A 3.5 3.5 0 0 0 2699 4505 A 3.5 3.5 0 0 0 2695.5 4501.5 Z M 2781.8928932188132 4500.707106781187  L 2786.1857864376266 4505  L 2781.8928932188132 4509.292893218813  L 2783.3071067811866 4510.707106781187  L 2788.3071067811866 4505.707106781187  L 2789.0142135623732 4505  L 2788.3071067811866 4504.292893218813  L 2783.3071067811866 4499.292893218813  L 2781.8928932188132 4500.707106781187  Z " fill-rule="nonzero" fill="rgba(85, 85, 85, 1)" stroke="none" class="fill" mask="url(#Clip236)" />
</svg>