<?xml version="1.0" encoding="utf-8"?>
<svg version="1.1" xmlns:xlink="http://www.w3.org/1999/xlink" width="20px" height="20px" preserveAspectRatio="xMinYMid meet" viewBox="2568 4206  20 18" xmlns="http://www.w3.org/2000/svg">
  <defs>
    <mask fill="white" id="clip1817">
      <path d="M 2546.5 4163  L 2609.5 4163  L 2609.5 4202  L 2546.5 4202  Z M 2546.5 4138  L 2609.5 4138  L 2609.5 4227  L 2546.5 4227  Z " fill-rule="evenodd" />
    </mask>
  </defs>
  <path d="M 2578 4163  L 2578 4150  M 2578 4202  L 2578 4216  " stroke-width="2" stroke="#555555" fill="none" />
  <path d="M 2578 4148  A 3.5 3.5 0 0 0 2574.5 4151.5 A 3.5 3.5 0 0 0 2578 4155 A 3.5 3.5 0 0 0 2581.5 4151.5 A 3.5 3.5 0 0 0 2578 4148 Z M 2582.29289321881 4210.89289321881  L 2578 4215.18578643763  L 2573.70710678119 4210.89289321881  L 2572.29289321881 4212.30710678119  L 2577.29289321881 4217.30710678119  L 2578 4218.01421356237  L 2578.70710678119 4217.30710678119  L 2583.70710678119 4212.30710678119  L 2582.29289321881 4210.89289321881  Z " fill-rule="nonzero" fill="#555555" stroke="none" mask="url(#clip1817)" />
</svg>