<?xml version="1.0" encoding="utf-8"?>
<svg version="1.1" xmlns:xlink="http://www.w3.org/1999/xlink" width="161px" height="10px" preserveAspectRatio="xMinYMid meet" viewBox="2303 4681 161 8" xmlns="http://www.w3.org/2000/svg">
  <defs>
    <mask fill="white" id="Clip240">
      <path d="M 2303 4666  L 2345 4666  L 2345 4705  L 2303 4705  Z M 2298 4550  L 2474 4550  L 2474 4705  L 2298 4705  Z " fill-rule="evenodd" />
    </mask>
  </defs>
  <path d="M 2463 4685  L 2308 4685  L 2308 4562  " stroke-width="2" stroke-dasharray="0" stroke="rgba(85, 85, 85, 1)" fill="none" class="stroke" mask="url(#Clip240)" />
  <path d="M 2461.5 4681.5  A 3.5 3.5 0 0 0 2458 4685 A 3.5 3.5 0 0 0 2461.5 4688.5 A 3.5 3.5 0 0 0 2465 4685 A 3.5 3.5 0 0 0 2461.5 4681.5 Z M 2303.7071067811867 4567.107106781186  L 2308 4562.814213562373  L 2312.2928932188133 4567.107106781186  L 2313.7071067811867 4565.692893218813  L 2308.7071067811867 4560.692893218813  L 2308 4559.985786437626  L 2307.2928932188133 4560.692893218813  L 2302.2928932188133 4565.692893218813  L 2303.7071067811867 4567.107106781186  Z " fill-rule="nonzero" fill="rgba(85, 85, 85, 1)" stroke="none" class="fill" mask="url(#Clip240)" />
</svg>