<?xml version="1.0" encoding="utf-8"?>
<svg version="1.1" xmlns:xlink="http://www.w3.org/1999/xlink" width="20px" height="20px" preserveAspectRatio="xMinYMid meet" viewBox="2298 4553  20 18" xmlns="http://www.w3.org/2000/svg">
  <defs>
    <mask fill="white" id="clip242">
      <path d="M 2303 4666  L 2345 4666  L 2345 4705  L 2303 4705  Z M 2298 4550  L 2474 4550  L 2474 4705  L 2298 4705  Z " fill-rule="evenodd" />
    </mask>
  </defs>
  <path d="M 2463 4685  L 2308 4685  L 2308 4562  " stroke-width="2" stroke="#555555" fill="none" mask="url(#clip242)" />
  <path d="M 2461.5 4681.5  A 3.5 3.5 0 0 0 2458 4685 A 3.5 3.5 0 0 0 2461.5 4688.5 A 3.5 3.5 0 0 0 2465 4685 A 3.5 3.5 0 0 0 2461.5 4681.5 Z M 2303.70710678119 4567.10710678119  L 2308 4562.81421356237  L 2312.29289321881 4567.10710678119  L 2313.70710678119 4565.69289321881  L 2308.70710678119 4560.69289321881  L 2308 4559.98578643763  L 2307.29289321881 4560.69289321881  L 2302.29289321881 4565.69289321881  L 2303.70710678119 4567.10710678119  Z " fill-rule="nonzero" fill="#555555" stroke="none" mask="url(#clip242)" />
</svg>