<?xml version="1.0" encoding="utf-8"?>
<svg version="1.1" xmlns:xlink="http://www.w3.org/1999/xlink" width="10px" height="96px" preserveAspectRatio="xMidYMin meet" viewBox="2574 4740  8 96" xmlns="http://www.w3.org/2000/svg">
  <defs>
    <mask fill="white" id="clip243">
      <path d="M 2046 4811  L 2088 4811  L 2088 4850  L 2046 4850  Z M 1726 4550  L 2588 4550  L 2588 4850  L 1726 4850  Z " fill-rule="evenodd" />
    </mask>
  </defs>
  <path d="M 2578 4742  L 2578 4831  L 1736 4831  L 1736 4562  " stroke-width="2" stroke="#555555" fill="none" mask="url(#clip243)" />
  <path d="M 2578 4740  A 3.5 3.5 0 0 0 2574.5 4743.5 A 3.5 3.5 0 0 0 2578 4747 A 3.5 3.5 0 0 0 2581.5 4743.5 A 3.5 3.5 0 0 0 2578 4740 Z M 1731.70710678119 4567.10710678119  L 1736 4562.81421356237  L 1740.29289321881 4567.10710678119  L 1741.70710678119 4565.69289321881  L 1736.70710678119 4560.69289321881  L 1736 4559.98578643763  L 1735.29289321881 4560.69289321881  L 1730.29289321881 4565.69289321881  L 1731.70710678119 4567.10710678119  Z " fill-rule="nonzero" fill="#555555" stroke="none" mask="url(#clip243)" />
</svg>