<?xml version="1.0" encoding="utf-8"?>
<svg version="1.1" xmlns:xlink="http://www.w3.org/1999/xlink" width="20px" height="21px" preserveAspectRatio="xMidYMin meet" viewBox="2569 4733 18 21" xmlns="http://www.w3.org/2000/svg">
  <defs>
    <mask fill="white" id="Clip249">
      <path d="M 2046 4811  L 2088 4811  L 2088 4850  L 2046 4850  Z M 1726 4550  L 2588 4550  L 2588 4850  L 1726 4850  Z " fill-rule="evenodd" />
    </mask>
  </defs>
  <path d="M 2578 4742  L 2578 4831  L 1736 4831  L 1736 4562  " stroke-width="2" stroke-dasharray="0" stroke="rgba(85, 85, 85, 1)" fill="none" class="stroke" mask="url(#Clip249)" />
  <path d="M 2578 4740  A 3.5 3.5 0 0 0 2574.5 4743.5 A 3.5 3.5 0 0 0 2578 4747 A 3.5 3.5 0 0 0 2581.5 4743.5 A 3.5 3.5 0 0 0 2578 4740 Z M 1731.7071067811864 4567.107106781186  L 1736 4562.814213562373  L 1740.2928932188136 4567.107106781186  L 1741.7071067811864 4565.692893218813  L 1736.7071067811864 4560.692893218813  L 1736 4559.985786437626  L 1735.2928932188136 4560.692893218813  L 1730.2928932188136 4565.692893218813  L 1731.7071067811864 4567.107106781186  Z " fill-rule="nonzero" fill="rgba(85, 85, 85, 1)" stroke="none" class="fill" mask="url(#Clip249)" />
</svg>