<?xml version="1.0" encoding="utf-8"?>
<svg version="1.1" xmlns:xlink="http://www.w3.org/1999/xlink" width="20px" height="21px" preserveAspectRatio="xMidYMin meet" viewBox="1416 4046 18 21" xmlns="http://www.w3.org/2000/svg">
  <defs>
    <mask fill="white" id="Clip250">
      <path d="M 1404 4068  L 1446 4068  L 1446 4107  L 1404 4107  Z M 1404 4043  L 1446 4043  L 1446 4132  L 1404 4132  Z " fill-rule="evenodd" />
    </mask>
  </defs>
  <path d="M 1425 4068  L 1425 4055  M 1425 4107  L 1425 4121  " stroke-width="2" stroke-dasharray="0" stroke="rgba(85, 85, 85, 1)" fill="none" class="stroke" />
  <path d="M 1425 4053  A 3.5 3.5 0 0 0 1421.5 4056.5 A 3.5 3.5 0 0 0 1425 4060 A 3.5 3.5 0 0 0 1428.5 4056.5 A 3.5 3.5 0 0 0 1425 4053 Z M 1429.2928932188136 4115.892893218814  L 1425 4120.185786437627  L 1420.7071067811864 4115.892893218814  L 1419.2928932188136 4117.307106781187  L 1424.2928932188136 4122.307106781187  L 1425 4123.014213562374  L 1425.7071067811864 4122.307106781187  L 1430.7071067811864 4117.307106781187  L 1429.2928932188136 4115.892893218814  Z " fill-rule="nonzero" fill="rgba(85, 85, 85, 1)" stroke="none" class="fill" mask="url(#Clip250)" />
</svg>