<?xml version="1.0" encoding="utf-8"?>
<svg version="1.1" xmlns:xlink="http://www.w3.org/1999/xlink" width="20px" height="21px" preserveAspectRatio="xMidYMin meet" viewBox="1415 463 18 21" xmlns="http://www.w3.org/2000/svg">
  <defs>
    <mask fill="white" id="Clip525">
      <path d="M 1916.5 501  L 2021.5 501  L 2021.5 540  L 1916.5 540  Z M 1414 151  L 2215 151  L 2215 540  L 1414 540  Z " fill-rule="evenodd" />
    </mask>
  </defs>
  <path d="M 1424 472  L 1424 520  L 2188 520  L 2188 466  A 3 3 0 0 0 2191 463 A 3 3 0 0 0 2188 460 L 2188 161  L 2203 161  " stroke-width="2" stroke-dasharray="0" stroke="rgba(217, 0, 27, 1)" fill="none" class="stroke" mask="url(#Clip525)" />
  <path d="M 1424 470  A 3.5 3.5 0 0 0 1420.5 473.5 A 3.5 3.5 0 0 0 1424 477 A 3.5 3.5 0 0 0 1427.5 473.5 A 3.5 3.5 0 0 0 1424 470 Z M 2197.8928932188132 156.70710678118655  L 2202.1857864376266 161  L 2197.8928932188132 165.29289321881345  L 2199.3071067811866 166.70710678118655  L 2204.3071067811866 161.70710678118655  L 2205.0142135623732 161  L 2204.3071067811866 160.29289321881345  L 2199.3071067811866 155.29289321881345  L 2197.8928932188132 156.70710678118655  Z " fill-rule="nonzero" fill="rgba(217, 0, 27, 1)" stroke="none" class="fill" mask="url(#Clip525)" />
</svg>