<?xml version="1.0" encoding="utf-8"?>
<svg version="1.1" xmlns:xlink="http://www.w3.org/1999/xlink" width="20px" height="20px" preserveAspectRatio="xMinYMid meet" viewBox="2193 152 20 18" xmlns="http://www.w3.org/2000/svg">
  <defs>
    <mask fill="white" id="Clip257">
      <path d="M 1740.5 500  L 1845.5 500  L 1845.5 539  L 1740.5 539  Z M 1079 151  L 2215 151  L 2215 539  L 1079 539  Z " fill-rule="evenodd" />
    </mask>
  </defs>
  <path d="M 1089 455  L 1089 520  L 1413 520  A 3 3 0 0 1 1416 517 A 3 3 0 0 1 1419 520 L 2188 520  L 2188 466  A 3 3 0 0 0 2191 463 A 3 3 0 0 0 2188 460 L 2188 161  L 2203 161  " stroke-width="2" stroke-dasharray="0" stroke="rgba(217, 0, 27, 1)" fill="none" class="stroke" mask="url(#Clip257)" />
  <path d="M 1089 453  A 3.5 3.5 0 0 0 1085.5 456.5 A 3.5 3.5 0 0 0 1089 460 A 3.5 3.5 0 0 0 1092.5 456.5 A 3.5 3.5 0 0 0 1089 453 Z M 2197.8928932188132 156.70710678118655  L 2202.1857864376266 161  L 2197.8928932188132 165.29289321881345  L 2199.3071067811866 166.70710678118655  L 2204.3071067811866 161.70710678118655  L 2205.0142135623732 161  L 2204.3071067811866 160.29289321881345  L 2199.3071067811866 155.29289321881345  L 2197.8928932188132 156.70710678118655  Z " fill-rule="nonzero" fill="rgba(217, 0, 27, 1)" stroke="none" class="fill" mask="url(#Clip257)" />
</svg>