<?xml version="1.0" encoding="utf-8"?>
<svg version="1.1" xmlns:xlink="http://www.w3.org/1999/xlink" width="10px" height="358px" preserveAspectRatio="xMidYMin meet" viewBox="2186 663 8 358" xmlns="http://www.w3.org/2000/svg">
  <defs>
    <mask fill="white" id="Clip260">
      <path d="M 1740.5 997  L 1845.5 997  L 1845.5 1036  L 1740.5 1036  Z M 1079 658  L 2215 658  L 2215 1036  L 1079 1036  Z " fill-rule="evenodd" />
    </mask>
  </defs>
  <path d="M 1089 962  L 1089 979  A 3 3 0 0 1 1092 982 A 3 3 0 0 1 1089 985 L 1089 1016  L 2190 1016  L 2190 978  A 3 3 0 0 0 2193 975 A 3 3 0 0 0 2190 972 L 2190 668  L 2203 668  " stroke-width="2" stroke-dasharray="0" stroke="rgba(217, 0, 27, 1)" fill="none" class="stroke" mask="url(#Clip260)" />
  <path d="M 1089 960  A 3.5 3.5 0 0 0 1085.5 963.5 A 3.5 3.5 0 0 0 1089 967 A 3.5 3.5 0 0 0 1092.5 963.5 A 3.5 3.5 0 0 0 1089 960 Z M 2197.8928932188132 663.7071067811866  L 2202.1857864376266 668  L 2197.8928932188132 672.2928932188134  L 2199.3071067811866 673.7071067811866  L 2204.3071067811866 668.7071067811866  L 2205.0142135623732 668  L 2204.3071067811866 667.2928932188134  L 2199.3071067811866 662.2928932188134  L 2197.8928932188132 663.7071067811866  Z " fill-rule="nonzero" fill="rgba(217, 0, 27, 1)" stroke="none" class="fill" mask="url(#Clip260)" />
</svg>