<?xml version="1.0" encoding="utf-8"?>
<svg version="1.1" xmlns:xlink="http://www.w3.org/1999/xlink" width="10px" height="74px" preserveAspectRatio="xMidYMin meet" viewBox="1085 216 8 74" xmlns="http://www.w3.org/2000/svg">
  <defs>
    <mask fill="white" id="Clip18">
      <path d="M 1068 231  L 1110 231  L 1110 270  L 1068 270  Z M 1068 206  L 1110 206  L 1110 295  L 1068 295  Z " fill-rule="evenodd" />
    </mask>
  </defs>
  <path d="M 1089 231  L 1089 218  M 1089 270  L 1089 284  " stroke-width="2" stroke-dasharray="0" stroke="rgba(85, 85, 85, 1)" fill="none" class="stroke" />
  <path d="M 1089 216  A 3.5 3.5 0 0 0 1085.5 219.5 A 3.5 3.5 0 0 0 1089 223 A 3.5 3.5 0 0 0 1092.5 219.5 A 3.5 3.5 0 0 0 1089 216 Z M 1093.2928932188136 278.89289321881347  L 1089 283.18578643762703  L 1084.7071067811864 278.89289321881347  L 1083.2928932188136 280.3071067811866  L 1088.2928932188136 285.3071067811866  L 1089 286.014213562373  L 1089.7071067811864 285.3071067811866  L 1094.7071067811864 280.3071067811866  L 1093.2928932188136 278.89289321881347  Z " fill-rule="nonzero" fill="rgba(85, 85, 85, 1)" stroke="none" class="fill" mask="url(#Clip18)" />
</svg>