<?xml version="1.0" encoding="utf-8"?>
<svg version="1.1" xmlns:xlink="http://www.w3.org/1999/xlink" width="20px" height="21px" preserveAspectRatio="xMidYMin meet" viewBox="2007 209  18 21" xmlns="http://www.w3.org/2000/svg">
  <defs>
    <mask fill="white" id="clip1587">
      <path d="M 1996 231  L 2038 231  L 2038 270  L 1996 270  Z M 1996 206  L 2038 206  L 2038 295  L 1996 295  Z " fill-rule="evenodd" />
    </mask>
  </defs>
  <path d="M 2016 218  L 2016 250  L 2017 250  L 2017 284  " stroke-width="2" stroke="#555555" fill="none" mask="url(#clip1587)" />
  <path d="M 2016 216  A 3.5 3.5 0 0 0 2012.5 219.5 A 3.5 3.5 0 0 0 2016 223 A 3.5 3.5 0 0 0 2019.5 219.5 A 3.5 3.5 0 0 0 2016 216 Z M 2021.29289321881 278.892893218813  L 2017 283.185786437627  L 2012.70710678119 278.892893218813  L 2011.29289321881 280.307106781187  L 2016.29289321881 285.307106781187  L 2017 286.014213562373  L 2017.70710678119 285.307106781187  L 2022.70710678119 280.307106781187  L 2021.29289321881 278.892893218813  Z " fill-rule="nonzero" fill="#555555" stroke="none" mask="url(#clip1587)" />
</svg>