<?xml version="1.0" encoding="utf-8"?>
<svg version="1.1" xmlns:xlink="http://www.w3.org/1999/xlink" width="161px" height="10px" preserveAspectRatio="xMinYMid meet" viewBox="2302 1576 161 8" xmlns="http://www.w3.org/2000/svg">
  <defs>
    <mask fill="white" id="Clip35">
      <path d="M 2302 1561  L 2344 1561  L 2344 1600  L 2302 1600  Z M 2297 1445  L 2473 1445  L 2473 1600  L 2297 1600  Z " fill-rule="evenodd" />
    </mask>
  </defs>
  <path d="M 2462 1580  L 2307 1580  L 2307 1457  " stroke-width="2" stroke-dasharray="0" stroke="rgba(85, 85, 85, 1)" fill="none" class="stroke" mask="url(#Clip35)" />
  <path d="M 2460.5 1576.5  A 3.5 3.5 0 0 0 2457 1580 A 3.5 3.5 0 0 0 2460.5 1583.5 A 3.5 3.5 0 0 0 2464 1580 A 3.5 3.5 0 0 0 2460.5 1576.5 Z M 2302.7071067811867 1462.1071067811865  L 2307 1457.8142135623732  L 2311.2928932188133 1462.1071067811865  L 2312.7071067811867 1460.6928932188137  L 2307.7071067811867 1455.6928932188137  L 2307 1454.985786437627  L 2306.2928932188133 1455.6928932188137  L 2301.2928932188133 1460.6928932188137  L 2302.7071067811867 1462.1071067811865  Z " fill-rule="nonzero" fill="rgba(85, 85, 85, 1)" stroke="none" class="fill" mask="url(#Clip35)" />
</svg>