<?xml version="1.0" encoding="utf-8"?>
<svg version="1.1" xmlns:xlink="http://www.w3.org/1999/xlink" width="21px" height="20px" preserveAspectRatio="xMinYMid meet" viewBox="2684 152  21 18" xmlns="http://www.w3.org/2000/svg">
  <defs>
    <mask fill="white" id="clip28">
      <path d="M 2707.5 142  L 2770.5 142  L 2770.5 181  L 2707.5 181  Z M 2681 142  L 2798 142  L 2798 181  L 2681 181  Z " fill-rule="evenodd" />
    </mask>
  </defs>
  <path d="M 2707.5 161  L 2693 161  M 2770.5 161  L 2786 161  " stroke-width="2" stroke="#555555" fill="none" />
  <path d="M 2694.5 157.5  A 3.5 3.5 0 0 0 2691 161 A 3.5 3.5 0 0 0 2694.5 164.5 A 3.5 3.5 0 0 0 2698 161 A 3.5 3.5 0 0 0 2694.5 157.5 Z M 2780.89289321881 156.707106781187  L 2785.18578643763 161  L 2780.89289321881 165.292893218813  L 2782.30710678119 166.707106781187  L 2787.30710678119 161.707106781187  L 2788.01421356237 161  L 2787.30710678119 160.292893218813  L 2782.30710678119 155.292893218813  L 2780.89289321881 156.707106781187  Z " fill-rule="nonzero" fill="#555555" stroke="none" mask="url(#clip28)" />
</svg>