<?xml version="1.0" encoding="utf-8"?>
<svg version="1.1" xmlns:xlink="http://www.w3.org/1999/xlink" width="102px" height="10px" preserveAspectRatio="xMinYMid meet" viewBox="2691 157 102 8" xmlns="http://www.w3.org/2000/svg">
  <defs>
    <mask fill="white" id="Clip29">
      <path d="M 2707.5 142  L 2770.5 142  L 2770.5 181  L 2707.5 181  Z M 2681 142  L 2798 142  L 2798 181  L 2681 181  Z " fill-rule="evenodd" />
    </mask>
  </defs>
  <path d="M 2707.5 161  L 2693 161  M 2770.5 161  L 2786 161  " stroke-width="2" stroke-dasharray="0" stroke="rgba(85, 85, 85, 1)" fill="none" class="stroke" />
  <path d="M 2694.5 157.5  A 3.5 3.5 0 0 0 2691 161 A 3.5 3.5 0 0 0 2694.5 164.5 A 3.5 3.5 0 0 0 2698 161 A 3.5 3.5 0 0 0 2694.5 157.5 Z M 2780.8928932188132 156.70710678118655  L 2785.1857864376266 161  L 2780.8928932188132 165.29289321881345  L 2782.3071067811866 166.70710678118655  L 2787.3071067811866 161.70710678118655  L 2788.0142135623732 161  L 2787.3071067811866 160.29289321881345  L 2782.3071067811866 155.29289321881345  L 2780.8928932188132 156.70710678118655  Z " fill-rule="nonzero" fill="rgba(85, 85, 85, 1)" stroke="none" class="fill" mask="url(#Clip29)" />
</svg>