<?xml version="1.0" encoding="utf-8"?>
<svg version="1.1" xmlns:xlink="http://www.w3.org/1999/xlink" width="20px" height="20px" preserveAspectRatio="xMinYMid meet" viewBox="2567 274  20 18" xmlns="http://www.w3.org/2000/svg">
  <defs>
    <mask fill="white" id="clip1594">
      <path d="M 2545.5 231  L 2608.5 231  L 2608.5 270  L 2545.5 270  Z M 2545.5 206  L 2608.5 206  L 2608.5 295  L 2545.5 295  Z " fill-rule="evenodd" />
    </mask>
  </defs>
  <path d="M 2577 231  L 2577 218  M 2577 270  L 2577 284  " stroke-width="2" stroke="#555555" fill="none" />
  <path d="M 2577 216  A 3.5 3.5 0 0 0 2573.5 219.5 A 3.5 3.5 0 0 0 2577 223 A 3.5 3.5 0 0 0 2580.5 219.5 A 3.5 3.5 0 0 0 2577 216 Z M 2581.29289321881 278.892893218813  L 2577 283.185786437627  L 2572.70710678119 278.892893218813  L 2571.29289321881 280.307106781187  L 2576.29289321881 285.307106781187  L 2577 286.014213562373  L 2577.70710678119 285.307106781187  L 2582.70710678119 280.307106781187  L 2581.29289321881 278.892893218813  Z " fill-rule="nonzero" fill="#555555" stroke="none" mask="url(#clip1594)" />
</svg>