<?xml version="1.0" encoding="utf-8"?>
<svg version="1.1" xmlns:xlink="http://www.w3.org/1999/xlink" width="10px" height="74px" preserveAspectRatio="xMidYMin meet" viewBox="2573 216 8 74" xmlns="http://www.w3.org/2000/svg">
  <defs>
    <mask fill="white" id="Clip299">
      <path d="M 2545.5 231  L 2608.5 231  L 2608.5 270  L 2545.5 270  Z M 2545.5 206  L 2608.5 206  L 2608.5 295  L 2545.5 295  Z " fill-rule="evenodd" />
    </mask>
  </defs>
  <path d="M 2577 231  L 2577 218  M 2577 270  L 2577 284  " stroke-width="2" stroke-dasharray="0" stroke="rgba(85, 85, 85, 1)" fill="none" class="stroke" />
  <path d="M 2577 216  A 3.5 3.5 0 0 0 2573.5 219.5 A 3.5 3.5 0 0 0 2577 223 A 3.5 3.5 0 0 0 2580.5 219.5 A 3.5 3.5 0 0 0 2577 216 Z M 2581.2928932188133 278.89289321881347  L 2577 283.1857864376268  L 2572.7071067811867 278.89289321881347  L 2571.2928932188133 280.3071067811866  L 2576.2928932188133 285.3071067811866  L 2577 286.01421356237324  L 2577.7071067811867 285.3071067811866  L 2582.7071067811867 280.3071067811866  L 2581.2928932188133 278.89289321881347  Z " fill-rule="nonzero" fill="rgba(85, 85, 85, 1)" stroke="none" class="fill" mask="url(#Clip299)" />
</svg>