<?xml version="1.0" encoding="utf-8"?>
<svg version="1.1" xmlns:xlink="http://www.w3.org/1999/xlink" width="10px" height="130px" preserveAspectRatio="xMidYMin meet" viewBox="2303 216  8 130" xmlns="http://www.w3.org/2000/svg">
  <defs>
    <mask fill="white" id="clip1596">
      <path d="M 2302 322  L 2344 322  L 2344 361  L 2302 361  Z M 2297 206  L 2473 206  L 2473 361  L 2297 361  Z " fill-rule="evenodd" />
    </mask>
  </defs>
  <path d="M 2462 341  L 2307 341  L 2307 218  " stroke-width="2" stroke="#555555" fill="none" mask="url(#clip1596)" />
  <path d="M 2460.5 337.5  A 3.5 3.5 0 0 0 2457 341 A 3.5 3.5 0 0 0 2460.5 344.5 A 3.5 3.5 0 0 0 2464 341 A 3.5 3.5 0 0 0 2460.5 337.5 Z M 2302.70710678119 223.107106781187  L 2307 218.814213562373  L 2311.29289321881 223.107106781187  L 2312.70710678119 221.692893218813  L 2307.70710678119 216.692893218813  L 2307 215.985786437627  L 2306.29289321881 216.692893218813  L 2301.29289321881 221.692893218813  L 2302.70710678119 223.107106781187  Z " fill-rule="nonzero" fill="#555555" stroke="none" mask="url(#clip1596)" />
</svg>