<?xml version="1.0" encoding="utf-8"?>
<svg version="1.1" xmlns:xlink="http://www.w3.org/1999/xlink" width="175px" height="10px" preserveAspectRatio="xMinYMid meet" viewBox="805 664 175 8" xmlns="http://www.w3.org/2000/svg">
  <defs>
    <mask fill="white" id="Clip44">
      <path d="M 832 650  L 948 650  L 948 686  L 832 686  Z M 795 650  L 985 650  L 985 686  L 795 686  Z " fill-rule="evenodd" />
    </mask>
  </defs>
  <path d="M 832 668  L 807 668  M 948 668  L 973 668  " stroke-width="2" stroke-dasharray="0" stroke="rgba(85, 85, 85, 1)" fill="none" class="stroke" />
  <path d="M 808.5 664.5  A 3.5 3.5 0 0 0 805 668 A 3.5 3.5 0 0 0 808.5 671.5 A 3.5 3.5 0 0 0 812 668 A 3.5 3.5 0 0 0 808.5 664.5 Z M 967.8928932188135 663.7071067811866  L 972.1857864376269 668  L 967.8928932188135 672.2928932188134  L 969.3071067811866 673.7071067811866  L 974.3071067811866 668.7071067811866  L 975.0142135623731 668  L 974.3071067811866 667.2928932188134  L 969.3071067811866 662.2928932188134  L 967.8928932188135 663.7071067811866  Z " fill-rule="nonzero" fill="rgba(85, 85, 85, 1)" stroke="none" class="fill" mask="url(#Clip44)" />
</svg>