<?xml version="1.0" encoding="utf-8"?>
<svg version="1.1" xmlns:xlink="http://www.w3.org/1999/xlink" width="196px" height="10px" preserveAspectRatio="xMinYMid meet" viewBox="805 664  196 8" xmlns="http://www.w3.org/2000/svg">
  <defs>
    <mask fill="white" id="clip42">
      <path d="M 843 650  L 959 650  L 959 686  L 843 686  Z M 795 650  L 1006 650  L 1006 686  L 795 686  Z " fill-rule="evenodd" />
    </mask>
  </defs>
  <path d="M 843 668  L 807 668  M 959 668  L 994 668  " stroke-width="2" stroke="#555555" fill="none" />
  <path d="M 808.5 664.5  A 3.5 3.5 0 0 0 805 668 A 3.5 3.5 0 0 0 808.5 671.5 A 3.5 3.5 0 0 0 812 668 A 3.5 3.5 0 0 0 808.5 664.5 Z M 988.892893218813 663.707106781187  L 993.185786437627 668  L 988.892893218813 672.292893218813  L 990.307106781187 673.707106781187  L 995.307106781187 668.707106781187  L 996.014213562373 668  L 995.307106781187 667.292893218813  L 990.307106781187 662.292893218813  L 988.892893218813 663.707106781187  Z " fill-rule="nonzero" fill="#555555" stroke="none" mask="url(#clip42)" />
</svg>