<?xml version="1.0" encoding="utf-8"?>
<svg version="1.1" xmlns:xlink="http://www.w3.org/1999/xlink" width="20px" height="20px" preserveAspectRatio="xMinYMid meet" viewBox="493 659 20 18" xmlns="http://www.w3.org/2000/svg">
  <defs>
    <mask fill="white" id="Clip320">
      <path d="M 677 962  L 761 962  L 761 1001  L 677 1001  Z M 452 658  L 1099 658  L 1099 1001  L 452 1001  Z " fill-rule="evenodd" />
    </mask>
  </defs>
  <path d="M 1089 725  L 1089 982  L 455 982  L 455 668  L 503 668  " stroke-width="2" stroke-dasharray="0" stroke="rgba(85, 85, 85, 1)" fill="none" class="stroke" mask="url(#Clip320)" />
  <path d="M 1089 723  A 3.5 3.5 0 0 0 1085.5 726.5 A 3.5 3.5 0 0 0 1089 730 A 3.5 3.5 0 0 0 1092.5 726.5 A 3.5 3.5 0 0 0 1089 723 Z M 497.89289321881347 663.7071067811866  L 502.1857864376269 668  L 497.89289321881347 672.2928932188134  L 499.3071067811866 673.7071067811866  L 504.3071067811866 668.7071067811866  L 505.01421356237313 668  L 504.3071067811866 667.2928932188134  L 499.3071067811866 662.2928932188134  L 497.89289321881347 663.7071067811866  Z " fill-rule="nonzero" fill="rgba(85, 85, 85, 1)" stroke="none" class="fill" mask="url(#Clip320)" />
</svg>