<?xml version="1.0" encoding="utf-8"?>
<svg version="1.1" xmlns:xlink="http://www.w3.org/1999/xlink" width="20px" height="21px" preserveAspectRatio="xMidYMin meet" viewBox="1080 716  18 21" xmlns="http://www.w3.org/2000/svg">
  <defs>
    <mask fill="white" id="clip49">
      <path d="M 677 962  L 761 962  L 761 1001  L 677 1001  Z M 452 658  L 1099 658  L 1099 1001  L 452 1001  Z " fill-rule="evenodd" />
    </mask>
  </defs>
  <path d="M 1089 725  L 1089 982  L 455 982  L 455 668  L 503 668  " stroke-width="2" stroke="#555555" fill="none" mask="url(#clip49)" />
  <path d="M 1089 723  A 3.5 3.5 0 0 0 1085.5 726.5 A 3.5 3.5 0 0 0 1089 730 A 3.5 3.5 0 0 0 1092.5 726.5 A 3.5 3.5 0 0 0 1089 723 Z M 497.892893218813 663.707106781187  L 502.185786437627 668  L 497.892893218813 672.292893218813  L 499.307106781187 673.707106781187  L 504.307106781187 668.707106781187  L 505.014213562373 668  L 504.307106781187 667.292893218813  L 499.307106781187 662.292893218813  L 497.892893218813 663.707106781187  Z " fill-rule="nonzero" fill="#555555" stroke="none" mask="url(#clip49)" />
</svg>