<?xml version="1.0" encoding="utf-8"?>
<svg version="1.1" xmlns:xlink="http://www.w3.org/1999/xlink" width="637px" height="10px" preserveAspectRatio="xMinYMid meet" viewBox="457 1275 637 8" xmlns="http://www.w3.org/2000/svg">
  <defs>
    <mask fill="white" id="Clip55">
      <path d="M 685 1259  L 769 1259  L 769 1298  L 685 1298  Z M 459 1129  L 1099 1129  L 1099 1298  L 459 1298  Z " fill-rule="evenodd" />
    </mask>
  </defs>
  <path d="M 1089 1196  L 1089 1279  L 462 1279  L 462 1139  L 503 1139  " stroke-width="2" stroke-dasharray="0" stroke="rgba(85, 85, 85, 1)" fill="none" class="stroke" mask="url(#Clip55)" />
  <path d="M 1089 1194  A 3.5 3.5 0 0 0 1085.5 1197.5 A 3.5 3.5 0 0 0 1089 1201 A 3.5 3.5 0 0 0 1092.5 1197.5 A 3.5 3.5 0 0 0 1089 1194 Z M 497.89289321881347 1134.7071067811864  L 502.18578643762703 1139  L 497.89289321881347 1143.2928932188136  L 499.3071067811866 1144.7071067811864  L 504.3071067811866 1139.7071067811864  L 505.014213562373 1139  L 504.3071067811866 1138.2928932188136  L 499.3071067811866 1133.2928932188136  L 497.89289321881347 1134.7071067811864  Z " fill-rule="nonzero" fill="rgba(85, 85, 85, 1)" stroke="none" class="fill" mask="url(#Clip55)" />
</svg>