<?xml version="1.0" encoding="utf-8"?>
<svg version="1.1" xmlns:xlink="http://www.w3.org/1999/xlink" width="20px" height="20px" preserveAspectRatio="xMinYMid meet" viewBox="1298 659  20 18" xmlns="http://www.w3.org/2000/svg">
  <defs>
    <mask fill="white" id="clip1621">
      <path d="M 1213.5 649  L 1276.5 649  L 1276.5 688  L 1213.5 688  Z M 1171 649  L 1320 649  L 1320 688  L 1171 688  Z " fill-rule="evenodd" />
    </mask>
  </defs>
  <path d="M 1213.5 668  L 1183 668  M 1276.5 668  L 1308 668  " stroke-width="2" stroke="#555555" fill="none" />
  <path d="M 1184.5 664.5  A 3.5 3.5 0 0 0 1181 668 A 3.5 3.5 0 0 0 1184.5 671.5 A 3.5 3.5 0 0 0 1188 668 A 3.5 3.5 0 0 0 1184.5 664.5 Z M 1302.89289321881 663.707106781187  L 1307.18578643763 668  L 1302.89289321881 672.292893218813  L 1304.30710678119 673.707106781187  L 1309.30710678119 668.707106781187  L 1310.01421356237 668  L 1309.30710678119 667.292893218813  L 1304.30710678119 662.292893218813  L 1302.89289321881 663.707106781187  Z " fill-rule="nonzero" fill="#555555" stroke="none" mask="url(#clip1621)" />
</svg>