<?xml version="1.0" encoding="utf-8"?>
<svg version="1.1" xmlns:xlink="http://www.w3.org/1999/xlink" width="143px" height="10px" preserveAspectRatio="xMinYMid meet" viewBox="1495 664 143 8" xmlns="http://www.w3.org/2000/svg">
  <defs>
    <mask fill="white" id="Clip60">
      <path d="M 1532.5 649  L 1595.5 649  L 1595.5 688  L 1532.5 688  Z M 1485 649  L 1643 649  L 1643 688  L 1485 688  Z " fill-rule="evenodd" />
    </mask>
  </defs>
  <path d="M 1532.5 668  L 1497 668  M 1595.5 668  L 1631 668  " stroke-width="2" stroke-dasharray="0" stroke="rgba(85, 85, 85, 1)" fill="none" class="stroke" />
  <path d="M 1498.5 664.5  A 3.5 3.5 0 0 0 1495 668 A 3.5 3.5 0 0 0 1498.5 671.5 A 3.5 3.5 0 0 0 1502 668 A 3.5 3.5 0 0 0 1498.5 664.5 Z M 1625.8928932188135 663.7071067811866  L 1630.185786437627 668  L 1625.8928932188135 672.2928932188134  L 1627.3071067811863 673.7071067811866  L 1632.3071067811863 668.7071067811866  L 1633.0142135623728 668  L 1632.3071067811863 667.2928932188134  L 1627.3071067811863 662.2928932188134  L 1625.8928932188135 663.7071067811866  Z " fill-rule="nonzero" fill="rgba(85, 85, 85, 1)" stroke="none" class="fill" mask="url(#Clip60)" />
</svg>