<?xml version="1.0" encoding="utf-8"?>
<svg version="1.1" xmlns:xlink="http://www.w3.org/1999/xlink" width="20px" height="21px" preserveAspectRatio="xMidYMin meet" viewBox="1415 209 18 21" xmlns="http://www.w3.org/2000/svg">
  <defs>
    <mask fill="white" id="Clip63">
      <path d="M 1403 239  L 1445 239  L 1445 278  L 1403 278  Z M 1403 206  L 1445 206  L 1445 312  L 1403 312  Z " fill-rule="evenodd" />
    </mask>
  </defs>
  <path d="M 1424 239  L 1424 218  M 1424 278  L 1424 301  " stroke-width="2" stroke-dasharray="0" stroke="rgba(85, 85, 85, 1)" fill="none" class="stroke" />
  <path d="M 1424 216  A 3.5 3.5 0 0 0 1420.5 219.5 A 3.5 3.5 0 0 0 1424 223 A 3.5 3.5 0 0 0 1427.5 219.5 A 3.5 3.5 0 0 0 1424 216 Z M 1428.2928932188136 295.89289321881347  L 1424 300.18578643762703  L 1419.7071067811864 295.89289321881347  L 1418.2928932188136 297.3071067811866  L 1423.2928932188136 302.3071067811866  L 1424 303.014213562373  L 1424.7071067811864 302.3071067811866  L 1429.7071067811864 297.3071067811866  L 1428.2928932188136 295.89289321881347  Z " fill-rule="nonzero" fill="rgba(85, 85, 85, 1)" stroke="none" class="fill" mask="url(#Clip63)" />
</svg>