<?xml version="1.0" encoding="utf-8"?>
<svg version="1.1" xmlns:xlink="http://www.w3.org/1999/xlink" width="21px" height="20px" preserveAspectRatio="xMinYMid meet" viewBox="2123 152 21 18" xmlns="http://www.w3.org/2000/svg">
  <defs>
    <mask fill="white" id="Clip66">
      <path d="M 2147 142  L 2189 142  L 2189 181  L 2147 181  Z M 2120 142  L 2215 142  L 2215 181  L 2120 181  Z " fill-rule="evenodd" />
    </mask>
  </defs>
  <path d="M 2147 161  L 2132 161  M 2189 161  L 2203 161  " stroke-width="2" stroke-dasharray="0" stroke="rgba(85, 85, 85, 1)" fill="none" class="stroke" />
  <path d="M 2133.5 157.5  A 3.5 3.5 0 0 0 2130 161 A 3.5 3.5 0 0 0 2133.5 164.5 A 3.5 3.5 0 0 0 2137 161 A 3.5 3.5 0 0 0 2133.5 157.5 Z M 2197.8928932188132 156.70710678118655  L 2202.1857864376266 161  L 2197.8928932188132 165.29289321881345  L 2199.3071067811866 166.70710678118655  L 2204.3071067811866 161.70710678118655  L 2205.0142135623732 161  L 2204.3071067811866 160.29289321881345  L 2199.3071067811866 155.29289321881345  L 2197.8928932188132 156.70710678118655  Z " fill-rule="nonzero" fill="rgba(85, 85, 85, 1)" stroke="none" class="fill" mask="url(#Clip66)" />
</svg>