<?xml version="1.0" encoding="utf-8"?>
<svg version="1.1" xmlns:xlink="http://www.w3.org/1999/xlink" width="10px" height="39px" preserveAspectRatio="xMidYMin meet" viewBox="2012 216 8 39" xmlns="http://www.w3.org/2000/svg">
  <defs>
    <mask fill="white" id="Clip68">
      <path d="M 1996 231  L 2038 231  L 2038 270  L 1996 270  Z M 1996 206  L 2038 206  L 2038 295  L 1996 295  Z " fill-rule="evenodd" />
    </mask>
  </defs>
  <path d="M 2016 218  L 2016 250  L 2017 250  L 2017 284  " stroke-width="2" stroke-dasharray="0" stroke="rgba(85, 85, 85, 1)" fill="none" class="stroke" mask="url(#Clip68)" />
  <path d="M 2016 216  A 3.5 3.5 0 0 0 2012.5 219.5 A 3.5 3.5 0 0 0 2016 223 A 3.5 3.5 0 0 0 2019.5 219.5 A 3.5 3.5 0 0 0 2016 216 Z M 2021.2928932188136 278.89289321881347  L 2017 283.18578643762703  L 2012.7071067811864 278.89289321881347  L 2011.2928932188136 280.3071067811866  L 2016.2928932188136 285.3071067811866  L 2017 286.014213562373  L 2017.7071067811864 285.3071067811866  L 2022.7071067811864 280.3071067811866  L 2021.2928932188136 278.89289321881347  Z " fill-rule="nonzero" fill="rgba(85, 85, 85, 1)" stroke="none" class="fill" mask="url(#Clip68)" />
</svg>