<?xml version="1.0" encoding="utf-8"?>
<svg version="1.1" xmlns:xlink="http://www.w3.org/1999/xlink" width="21px" height="20px" preserveAspectRatio="xMinYMid meet" viewBox="1531 659  21 18" xmlns="http://www.w3.org/2000/svg">
  <defs>
    <mask fill="white" id="clip64">
      <path d="M 1565 649  L 1607 649  L 1607 688  L 1565 688  Z M 1528 649  L 1643 649  L 1643 688  L 1528 688  Z " fill-rule="evenodd" />
    </mask>
  </defs>
  <path d="M 1565 668  L 1540 668  M 1607 668  L 1631 668  " stroke-width="2" stroke="#555555" fill="none" />
  <path d="M 1541.5 664.5  A 3.5 3.5 0 0 0 1538 668 A 3.5 3.5 0 0 0 1541.5 671.5 A 3.5 3.5 0 0 0 1545 668 A 3.5 3.5 0 0 0 1541.5 664.5 Z M 1625.89289321881 663.707106781187  L 1630.18578643763 668  L 1625.89289321881 672.292893218813  L 1627.30710678119 673.707106781187  L 1632.30710678119 668.707106781187  L 1633.01421356237 668  L 1632.30710678119 667.292893218813  L 1627.30710678119 662.292893218813  L 1625.89289321881 663.707106781187  Z " fill-rule="nonzero" fill="#555555" stroke="none" mask="url(#clip64)" />
</svg>