<?xml version="1.0" encoding="utf-8"?>
<svg version="1.1" xmlns:xlink="http://www.w3.org/1999/xlink" width="100px" height="10px" preserveAspectRatio="xMinYMid meet" viewBox="1538 1135 100 8" xmlns="http://www.w3.org/2000/svg">
  <defs>
    <mask fill="white" id="Clip336">
      <path d="M 1565 1120  L 1607 1120  L 1607 1159  L 1565 1159  Z M 1528 1120  L 1643 1120  L 1643 1159  L 1528 1159  Z " fill-rule="evenodd" />
    </mask>
  </defs>
  <path d="M 1565 1139  L 1540 1139  M 1607 1139  L 1631 1139  " stroke-width="2" stroke-dasharray="0" stroke="rgba(85, 85, 85, 1)" fill="none" class="stroke" />
  <path d="M 1541.5 1135.5  A 3.5 3.5 0 0 0 1538 1139 A 3.5 3.5 0 0 0 1541.5 1142.5 A 3.5 3.5 0 0 0 1545 1139 A 3.5 3.5 0 0 0 1541.5 1135.5 Z M 1625.8928932188135 1134.7071067811864  L 1630.185786437627 1139  L 1625.8928932188135 1143.2928932188136  L 1627.3071067811863 1144.7071067811864  L 1632.3071067811863 1139.7071067811864  L 1633.0142135623728 1139  L 1632.3071067811863 1138.2928932188136  L 1627.3071067811863 1133.2928932188136  L 1625.8928932188135 1134.7071067811864  Z " fill-rule="nonzero" fill="rgba(85, 85, 85, 1)" stroke="none" class="fill" mask="url(#Clip336)" />
</svg>