<?xml version="1.0" encoding="utf-8"?>
<svg version="1.1" xmlns:xlink="http://www.w3.org/1999/xlink" width="20px" height="20px" preserveAspectRatio="xMinYMid meet" viewBox="1621 1130  20 18" xmlns="http://www.w3.org/2000/svg">
  <defs>
    <mask fill="white" id="clip68">
      <path d="M 1565 1120  L 1607 1120  L 1607 1159  L 1565 1159  Z M 1528 1120  L 1643 1120  L 1643 1159  L 1528 1159  Z " fill-rule="evenodd" />
    </mask>
  </defs>
  <path d="M 1565 1139  L 1540 1139  M 1607 1139  L 1631 1139  " stroke-width="2" stroke="#555555" fill="none" />
  <path d="M 1541.5 1135.5  A 3.5 3.5 0 0 0 1538 1139 A 3.5 3.5 0 0 0 1541.5 1142.5 A 3.5 3.5 0 0 0 1545 1139 A 3.5 3.5 0 0 0 1541.5 1135.5 Z M 1625.89289321881 1134.70710678119  L 1630.18578643763 1139  L 1625.89289321881 1143.29289321881  L 1627.30710678119 1144.70710678119  L 1632.30710678119 1139.70710678119  L 1633.01421356237 1139  L 1632.30710678119 1138.29289321881  L 1627.30710678119 1133.29289321881  L 1625.89289321881 1134.70710678119  Z " fill-rule="nonzero" fill="#555555" stroke="none" mask="url(#clip68)" />
</svg>