<?xml version="1.0" encoding="utf-8"?>
<svg version="1.1" xmlns:xlink="http://www.w3.org/1999/xlink" width="196px" height="10px" preserveAspectRatio="xMinYMid meet" viewBox="805 157  196 8" xmlns="http://www.w3.org/2000/svg">
  <defs>
    <mask fill="white" id="clip1">
      <path d="M 843 143  L 959 143  L 959 179  L 843 179  Z M 795 143  L 1006 143  L 1006 179  L 795 179  Z " fill-rule="evenodd" />
    </mask>
  </defs>
  <path d="M 843 161  L 807 161  M 959 161  L 994 161  " stroke-width="2" stroke="#555555" fill="none" />
  <path d="M 808.5 157.5  A 3.5 3.5 0 0 0 805 161 A 3.5 3.5 0 0 0 808.5 164.5 A 3.5 3.5 0 0 0 812 161 A 3.5 3.5 0 0 0 808.5 157.5 Z M 988.892893218813 156.707106781187  L 993.185786437627 161  L 988.892893218813 165.292893218813  L 990.307106781187 166.707106781187  L 995.307106781187 161.707106781187  L 996.014213562373 161  L 995.307106781187 160.292893218813  L 990.307106781187 155.292893218813  L 988.892893218813 156.707106781187  Z " fill-rule="nonzero" fill="#555555" stroke="none" mask="url(#clip1)" />
</svg>