<?xml version="1.0" encoding="utf-8"?>
<svg version="1.1" xmlns:xlink="http://www.w3.org/1999/xlink" width="20px" height="21px" preserveAspectRatio="xMidYMin meet" viewBox="1080 716 18 21" xmlns="http://www.w3.org/2000/svg">
  <defs>
    <mask fill="white" id="Clip73">
      <path d="M 1068 738  L 1110 738  L 1110 777  L 1068 777  Z M 1068 713  L 1110 713  L 1110 802  L 1068 802  Z " fill-rule="evenodd" />
    </mask>
  </defs>
  <path d="M 1089 738  L 1089 725  M 1089 777  L 1089 791  " stroke-width="2" stroke-dasharray="0" stroke="rgba(85, 85, 85, 1)" fill="none" class="stroke" />
  <path d="M 1089 723  A 3.5 3.5 0 0 0 1085.5 726.5 A 3.5 3.5 0 0 0 1089 730 A 3.5 3.5 0 0 0 1092.5 726.5 A 3.5 3.5 0 0 0 1089 723 Z M 1093.2928932188136 785.8928932188135  L 1089 790.185786437627  L 1084.7071067811864 785.8928932188135  L 1083.2928932188136 787.3071067811866  L 1088.2928932188136 792.3071067811866  L 1089 793.014213562373  L 1089.7071067811864 792.3071067811866  L 1094.7071067811864 787.3071067811866  L 1093.2928932188136 785.8928932188135  Z " fill-rule="nonzero" fill="rgba(85, 85, 85, 1)" stroke="none" class="fill" mask="url(#Clip73)" />
</svg>