<?xml version="1.0" encoding="utf-8"?>
<svg version="1.1" xmlns:xlink="http://www.w3.org/1999/xlink" width="20px" height="20px" preserveAspectRatio="xMinYMid meet" viewBox="2193 659 20 18" xmlns="http://www.w3.org/2000/svg">
  <defs>
    <mask fill="white" id="Clip351">
      <path d="M 2147 649  L 2189 649  L 2189 688  L 2147 688  Z M 2120 649  L 2215 649  L 2215 688  L 2120 688  Z " fill-rule="evenodd" />
    </mask>
  </defs>
  <path d="M 2147 668  L 2132 668  M 2189 668  L 2203 668  " stroke-width="2" stroke-dasharray="0" stroke="rgba(85, 85, 85, 1)" fill="none" class="stroke" />
  <path d="M 2133.5 664.5  A 3.5 3.5 0 0 0 2130 668 A 3.5 3.5 0 0 0 2133.5 671.5 A 3.5 3.5 0 0 0 2137 668 A 3.5 3.5 0 0 0 2133.5 664.5 Z M 2197.8928932188132 663.7071067811866  L 2202.1857864376266 668  L 2197.8928932188132 672.2928932188134  L 2199.3071067811866 673.7071067811866  L 2204.3071067811866 668.7071067811866  L 2205.0142135623732 668  L 2204.3071067811866 667.2928932188134  L 2199.3071067811866 662.2928932188134  L 2197.8928932188132 663.7071067811866  Z " fill-rule="nonzero" fill="rgba(85, 85, 85, 1)" stroke="none" class="fill" mask="url(#Clip351)" />
</svg>