<?xml version="1.0" encoding="utf-8"?>
<svg version="1.1" xmlns:xlink="http://www.w3.org/1999/xlink" width="102px" height="10px" preserveAspectRatio="xMinYMid meet" viewBox="2691 664 102 8" xmlns="http://www.w3.org/2000/svg">
  <defs>
    <mask fill="white" id="Clip88">
      <path d="M 2707.5 649  L 2770.5 649  L 2770.5 688  L 2707.5 688  Z M 2681 649  L 2798 649  L 2798 688  L 2681 688  Z " fill-rule="evenodd" />
    </mask>
  </defs>
  <path d="M 2707.5 668  L 2693 668  M 2770.5 668  L 2786 668  " stroke-width="2" stroke-dasharray="0" stroke="rgba(85, 85, 85, 1)" fill="none" class="stroke" />
  <path d="M 2694.5 664.5  A 3.5 3.5 0 0 0 2691 668 A 3.5 3.5 0 0 0 2694.5 671.5 A 3.5 3.5 0 0 0 2698 668 A 3.5 3.5 0 0 0 2694.5 664.5 Z M 2780.8928932188132 663.7071067811866  L 2785.1857864376266 668  L 2780.8928932188132 672.2928932188134  L 2782.3071067811866 673.7071067811866  L 2787.3071067811866 668.7071067811866  L 2788.0142135623732 668  L 2787.3071067811866 667.2928932188134  L 2782.3071067811866 662.2928932188134  L 2780.8928932188132 663.7071067811866  Z " fill-rule="nonzero" fill="rgba(85, 85, 85, 1)" stroke="none" class="fill" mask="url(#Clip88)" />
</svg>