<?xml version="1.0" encoding="utf-8"?>
<svg version="1.1" xmlns:xlink="http://www.w3.org/1999/xlink" width="21px" height="20px" preserveAspectRatio="xMinYMid meet" viewBox="2684 1391 21 18" xmlns="http://www.w3.org/2000/svg">
  <defs>
    <mask fill="white" id="Clip361">
      <path d="M 2707.5 1381  L 2770.5 1381  L 2770.5 1420  L 2707.5 1420  Z M 2681 1381  L 2798 1381  L 2798 1420  L 2681 1420  Z " fill-rule="evenodd" />
    </mask>
  </defs>
  <path d="M 2707.5 1400  L 2693 1400  M 2770.5 1400  L 2786 1400  " stroke-width="2" stroke-dasharray="0" stroke="rgba(85, 85, 85, 1)" fill="none" class="stroke" />
  <path d="M 2694.5 1396.5  A 3.5 3.5 0 0 0 2691 1400 A 3.5 3.5 0 0 0 2694.5 1403.5 A 3.5 3.5 0 0 0 2698 1400 A 3.5 3.5 0 0 0 2694.5 1396.5 Z M 2780.8928932188132 1395.7071067811864  L 2785.185786437627 1400  L 2780.8928932188132 1404.2928932188136  L 2782.3071067811866 1405.7071067811864  L 2787.3071067811866 1400.7071067811864  L 2788.014213562373 1400  L 2787.3071067811866 1399.2928932188136  L 2782.3071067811866 1394.2928932188136  L 2780.8928932188132 1395.7071067811864  Z " fill-rule="nonzero" fill="rgba(85, 85, 85, 1)" stroke="none" class="fill" mask="url(#Clip361)" />
</svg>