<?xml version="1.0" encoding="utf-8"?>
<svg version="1.1" xmlns:xlink="http://www.w3.org/1999/xlink" width="20px" height="20px" preserveAspectRatio="xMinYMid meet" viewBox="1415 795 20 18" xmlns="http://www.w3.org/2000/svg">
  <defs>
    <mask fill="white" id="Clip107">
      <path d="M 1404 744  L 1446 744  L 1446 783  L 1404 783  Z M 1404 713  L 1446 713  L 1446 816  L 1404 816  Z " fill-rule="evenodd" />
    </mask>
  </defs>
  <path d="M 1424 725  L 1424 764  L 1425 764  L 1425 805  " stroke-width="2" stroke-dasharray="0" stroke="rgba(85, 85, 85, 1)" fill="none" class="stroke" mask="url(#Clip107)" />
  <path d="M 1424 723  A 3.5 3.5 0 0 0 1420.5 726.5 A 3.5 3.5 0 0 0 1424 730 A 3.5 3.5 0 0 0 1427.5 726.5 A 3.5 3.5 0 0 0 1424 723 Z M 1429.2928932188136 799.8928932188135  L 1425 804.185786437627  L 1420.7071067811864 799.8928932188135  L 1419.2928932188136 801.3071067811866  L 1424.2928932188136 806.3071067811866  L 1425 807.014213562373  L 1425.7071067811864 806.3071067811866  L 1430.7071067811864 801.3071067811866  L 1429.2928932188136 799.8928932188135  Z " fill-rule="nonzero" fill="rgba(85, 85, 85, 1)" stroke="none" class="fill" mask="url(#Clip107)" />
</svg>