<?xml version="1.0" encoding="utf-8"?>
<svg version="1.1" xmlns:xlink="http://www.w3.org/1999/xlink" width="80px" height="10px" preserveAspectRatio="xMinYMid meet" viewBox="2130 1396  80 8" xmlns="http://www.w3.org/2000/svg">
  <defs>
    <mask fill="white" id="clip105">
      <path d="M 2147 1381  L 2189 1381  L 2189 1420  L 2147 1420  Z M 2120 1381  L 2215 1381  L 2215 1420  L 2120 1420  Z " fill-rule="evenodd" />
    </mask>
  </defs>
  <path d="M 2147 1400  L 2132 1400  M 2189 1400  L 2203 1400  " stroke-width="2" stroke="#555555" fill="none" />
  <path d="M 2133.5 1396.5  A 3.5 3.5 0 0 0 2130 1400 A 3.5 3.5 0 0 0 2133.5 1403.5 A 3.5 3.5 0 0 0 2137 1400 A 3.5 3.5 0 0 0 2133.5 1396.5 Z M 2197.89289321881 1395.70710678119  L 2202.18578643763 1400  L 2197.89289321881 1404.29289321881  L 2199.30710678119 1405.70710678119  L 2204.30710678119 1400.70710678119  L 2205.01421356237 1400  L 2204.30710678119 1399.29289321881  L 2199.30710678119 1394.29289321881  L 2197.89289321881 1395.70710678119  Z " fill-rule="nonzero" fill="#555555" stroke="none" mask="url(#clip105)" />
</svg>