<?xml version="1.0" encoding="utf-8"?>
<svg version="1.1" xmlns:xlink="http://www.w3.org/1999/xlink" width="20px" height="20px" preserveAspectRatio="xMinYMid meet" viewBox="2193 1391 20 18" xmlns="http://www.w3.org/2000/svg">
  <defs>
    <mask fill="white" id="Clip110">
      <path d="M 2147 1381  L 2189 1381  L 2189 1420  L 2147 1420  Z M 2120 1381  L 2215 1381  L 2215 1420  L 2120 1420  Z " fill-rule="evenodd" />
    </mask>
  </defs>
  <path d="M 2147 1400  L 2132 1400  M 2189 1400  L 2203 1400  " stroke-width="2" stroke-dasharray="0" stroke="rgba(85, 85, 85, 1)" fill="none" class="stroke" />
  <path d="M 2133.5 1396.5  A 3.5 3.5 0 0 0 2130 1400 A 3.5 3.5 0 0 0 2133.5 1403.5 A 3.5 3.5 0 0 0 2137 1400 A 3.5 3.5 0 0 0 2133.5 1396.5 Z M 2197.8928932188132 1395.7071067811864  L 2202.185786437627 1400  L 2197.8928932188132 1404.2928932188136  L 2199.3071067811866 1405.7071067811864  L 2204.3071067811866 1400.7071067811864  L 2205.014213562373 1400  L 2204.3071067811866 1399.2928932188136  L 2199.3071067811866 1394.2928932188136  L 2197.8928932188132 1395.7071067811864  Z " fill-rule="nonzero" fill="rgba(85, 85, 85, 1)" stroke="none" class="fill" mask="url(#Clip110)" />
</svg>