<?xml version="1.0" encoding="utf-8"?>
<svg version="1.1" xmlns:xlink="http://www.w3.org/1999/xlink" width="11px" height="10px" preserveAspectRatio="xMinYMid meet" viewBox="2011 1485 11 8" xmlns="http://www.w3.org/2000/svg">
  <defs>
    <mask fill="white" id="Clip110">
      <path d="M 1996 1470  L 2038 1470  L 2038 1509  L 1996 1509  Z M 1996 1445  L 2038 1445  L 2038 1534  L 1996 1534  Z " fill-rule="evenodd" />
    </mask>
  </defs>
  <path d="M 2016 1457  L 2016 1489  L 2017 1489  L 2017 1523  " stroke-width="2" stroke-dasharray="0" stroke="rgba(85, 85, 85, 1)" fill="none" class="stroke" mask="url(#Clip110)" />
  <path d="M 2016 1455  A 3.5 3.5 0 0 0 2012.5 1458.5 A 3.5 3.5 0 0 0 2016 1462 A 3.5 3.5 0 0 0 2019.5 1458.5 A 3.5 3.5 0 0 0 2016 1455 Z M 2021.2928932188136 1517.8928932188135  L 2017 1522.185786437627  L 2012.7071067811864 1517.8928932188135  L 2011.2928932188136 1519.3071067811863  L 2016.2928932188136 1524.3071067811863  L 2017 1525.0142135623728  L 2017.7071067811864 1524.3071067811863  L 2022.7071067811864 1519.3071067811863  L 2021.2928932188136 1517.8928932188135  Z " fill-rule="nonzero" fill="rgba(85, 85, 85, 1)" stroke="none" class="fill" mask="url(#Clip110)" />
</svg>