<?xml version="1.0" encoding="utf-8"?>
<svg version="1.1" xmlns:xlink="http://www.w3.org/1999/xlink" width="20px" height="21px" preserveAspectRatio="xMidYMin meet" viewBox="2007 1448  18 21" xmlns="http://www.w3.org/2000/svg">
  <defs>
    <mask fill="white" id="clip111">
      <path d="M 1996 1470  L 2038 1470  L 2038 1509  L 1996 1509  Z M 1996 1445  L 2038 1445  L 2038 1534  L 1996 1534  Z " fill-rule="evenodd" />
    </mask>
  </defs>
  <path d="M 2016 1457  L 2016 1489  L 2017 1489  L 2017 1523  " stroke-width="2" stroke="#555555" fill="none" mask="url(#clip111)" />
  <path d="M 2016 1455  A 3.5 3.5 0 0 0 2012.5 1458.5 A 3.5 3.5 0 0 0 2016 1462 A 3.5 3.5 0 0 0 2019.5 1458.5 A 3.5 3.5 0 0 0 2016 1455 Z M 2021.29289321881 1517.89289321881  L 2017 1522.18578643763  L 2012.70710678119 1517.89289321881  L 2011.29289321881 1519.30710678119  L 2016.29289321881 1524.30710678119  L 2017 1525.01421356237  L 2017.70710678119 1524.30710678119  L 2022.70710678119 1519.30710678119  L 2021.29289321881 1517.89289321881  Z " fill-rule="nonzero" fill="#555555" stroke="none" mask="url(#clip111)" />
</svg>