<?xml version="1.0" encoding="utf-8"?>
<svg version="1.1" xmlns:xlink="http://www.w3.org/1999/xlink" width="10px" height="74px" preserveAspectRatio="xMidYMin meet" viewBox="2573 1455 8 74" xmlns="http://www.w3.org/2000/svg">
  <defs>
    <mask fill="white" id="Clip114">
      <path d="M 2545.5 1470  L 2608.5 1470  L 2608.5 1509  L 2545.5 1509  Z M 2545.5 1445  L 2608.5 1445  L 2608.5 1534  L 2545.5 1534  Z " fill-rule="evenodd" />
    </mask>
  </defs>
  <path d="M 2577 1470  L 2577 1457  M 2577 1509  L 2577 1523  " stroke-width="2" stroke-dasharray="0" stroke="rgba(85, 85, 85, 1)" fill="none" class="stroke" />
  <path d="M 2577 1455  A 3.5 3.5 0 0 0 2573.5 1458.5 A 3.5 3.5 0 0 0 2577 1462 A 3.5 3.5 0 0 0 2580.5 1458.5 A 3.5 3.5 0 0 0 2577 1455 Z M 2581.2928932188133 1517.8928932188135  L 2577 1522.1857864376268  L 2572.7071067811867 1517.8928932188135  L 2571.2928932188133 1519.3071067811863  L 2576.2928932188133 1524.3071067811863  L 2577 1525.014213562373  L 2577.7071067811867 1524.3071067811863  L 2582.7071067811867 1519.3071067811863  L 2581.2928932188133 1517.8928932188135  Z " fill-rule="nonzero" fill="rgba(85, 85, 85, 1)" stroke="none" class="fill" mask="url(#Clip114)" />
</svg>