<?xml version="1.0" encoding="utf-8"?>
<svg version="1.1" xmlns:xlink="http://www.w3.org/1999/xlink" width="10px" height="281px" preserveAspectRatio="xMidYMin meet" viewBox="1731 1455 8 281" xmlns="http://www.w3.org/2000/svg">
  <defs>
    <mask fill="white" id="Clip123">
      <path d="M 2045 1712  L 2087 1712  L 2087 1751  L 2045 1751  Z M 1725 1445  L 2587 1445  L 2587 1751  L 1725 1751  Z " fill-rule="evenodd" />
    </mask>
  </defs>
  <path d="M 2577 1637  L 2577 1731  L 1735 1731  L 1735 1457  " stroke-width="2" stroke-dasharray="0" stroke="rgba(85, 85, 85, 1)" fill="none" class="stroke" mask="url(#Clip123)" />
  <path d="M 2577 1635  A 3.5 3.5 0 0 0 2573.5 1638.5 A 3.5 3.5 0 0 0 2577 1642 A 3.5 3.5 0 0 0 2580.5 1638.5 A 3.5 3.5 0 0 0 2577 1635 Z M 1730.7071067811864 1462.1071067811865  L 1735 1457.814213562373  L 1739.2928932188136 1462.1071067811865  L 1740.7071067811864 1460.6928932188137  L 1735.7071067811864 1455.6928932188137  L 1735 1454.9857864376272  L 1734.2928932188136 1455.6928932188137  L 1729.2928932188136 1460.6928932188137  L 1730.7071067811864 1462.1071067811865  Z " fill-rule="nonzero" fill="rgba(85, 85, 85, 1)" stroke="none" class="fill" mask="url(#Clip123)" />
</svg>