<?xml version="1.0" encoding="utf-8"?>
<svg version="1.1" xmlns:xlink="http://www.w3.org/1999/xlink" width="196px" height="10px" preserveAspectRatio="xMinYMid meet" viewBox="805 1135  196 8" xmlns="http://www.w3.org/2000/svg">
  <defs>
    <mask fill="white" id="clip1687">
      <path d="M 852.5 1121  L 949.5 1121  L 949.5 1157  L 852.5 1157  Z M 795 1121  L 1006 1121  L 1006 1157  L 795 1157  Z " fill-rule="evenodd" />
    </mask>
  </defs>
  <path d="M 852.5 1139  L 807 1139  M 949.5 1139  L 994 1139  " stroke-width="2" stroke="#555555" fill="none" />
  <path d="M 808.5 1135.5  A 3.5 3.5 0 0 0 805 1139 A 3.5 3.5 0 0 0 808.5 1142.5 A 3.5 3.5 0 0 0 812 1139 A 3.5 3.5 0 0 0 808.5 1135.5 Z M 988.892893218813 1134.70710678119  L 993.185786437627 1139  L 988.892893218813 1143.29289321881  L 990.307106781187 1144.70710678119  L 995.307106781187 1139.70710678119  L 996.014213562373 1139  L 995.307106781187 1138.29289321881  L 990.307106781187 1133.29289321881  L 988.892893218813 1134.70710678119  Z " fill-rule="nonzero" fill="#555555" stroke="none" mask="url(#clip1687)" />
</svg>