<?xml version="1.0" encoding="utf-8"?>
<svg version="1.1" xmlns:xlink="http://www.w3.org/1999/xlink" width="21px" height="20px" preserveAspectRatio="xMinYMid meet" viewBox="798 1130 21 18" xmlns="http://www.w3.org/2000/svg">
  <defs>
    <mask fill="white" id="Clip129">
      <path d="M 852.5 1121  L 949.5 1121  L 949.5 1157  L 852.5 1157  Z M 795 1121  L 1006 1121  L 1006 1157  L 795 1157  Z " fill-rule="evenodd" />
    </mask>
  </defs>
  <path d="M 852.5 1139  L 807 1139  M 949.5 1139  L 994 1139  " stroke-width="2" stroke-dasharray="0" stroke="rgba(85, 85, 85, 1)" fill="none" class="stroke" />
  <path d="M 808.5 1135.5  A 3.5 3.5 0 0 0 805 1139 A 3.5 3.5 0 0 0 808.5 1142.5 A 3.5 3.5 0 0 0 812 1139 A 3.5 3.5 0 0 0 808.5 1135.5 Z M 988.8928932188135 1134.7071067811864  L 993.185786437627 1139  L 988.8928932188135 1143.2928932188136  L 990.3071067811866 1144.7071067811864  L 995.3071067811866 1139.7071067811864  L 996.014213562373 1139  L 995.3071067811866 1138.2928932188136  L 990.3071067811866 1133.2928932188136  L 988.8928932188135 1134.7071067811864  Z " fill-rule="nonzero" fill="rgba(85, 85, 85, 1)" stroke="none" class="fill" mask="url(#Clip129)" />
</svg>