<?xml version="1.0" encoding="utf-8"?>
<svg version="1.1" xmlns:xlink="http://www.w3.org/1999/xlink" width="852px" height="10px" preserveAspectRatio="xMinYMid meet" viewBox="1730 971 852 8" xmlns="http://www.w3.org/2000/svg">
  <defs>
    <mask fill="white" id="Clip127">
      <path d="M 2045 956  L 2087 956  L 2087 995  L 2045 995  Z M 1725 713  L 2587 713  L 2587 995  L 1725 995  Z " fill-rule="evenodd" />
    </mask>
  </defs>
  <path d="M 2577 905  L 2577 975  L 1735 975  L 1735 725  " stroke-width="2" stroke-dasharray="0" stroke="rgba(85, 85, 85, 1)" fill="none" class="stroke" mask="url(#Clip127)" />
  <path d="M 2577 903  A 3.5 3.5 0 0 0 2573.5 906.5 A 3.5 3.5 0 0 0 2577 910 A 3.5 3.5 0 0 0 2580.5 906.5 A 3.5 3.5 0 0 0 2577 903 Z M 1730.7071067811864 730.1071067811865  L 1735 725.814213562373  L 1739.2928932188136 730.1071067811865  L 1740.7071067811864 728.6928932188134  L 1735.7071067811864 723.6928932188134  L 1735 722.985786437627  L 1734.2928932188136 723.6928932188134  L 1729.2928932188136 728.6928932188134  L 1730.7071067811864 730.1071067811865  Z " fill-rule="nonzero" fill="rgba(85, 85, 85, 1)" stroke="none" class="fill" mask="url(#Clip127)" />
</svg>