<?xml version="1.0" encoding="utf-8"?>
<svg version="1.1" xmlns:xlink="http://www.w3.org/1999/xlink" width="134px" height="10px" preserveAspectRatio="xMinYMid meet" viewBox="1181 1135 134 8" xmlns="http://www.w3.org/2000/svg">
  <defs>
    <mask fill="white" id="Clip9">
      <path d="M 1213.5 1120  L 1276.5 1120  L 1276.5 1159  L 1213.5 1159  Z M 1171 1120  L 1320 1120  L 1320 1159  L 1171 1159  Z " fill-rule="evenodd" />
    </mask>
  </defs>
  <path d="M 1213.5 1139  L 1183 1139  M 1276.5 1139  L 1308 1139  " stroke-width="2" stroke-dasharray="0" stroke="rgba(85, 85, 85, 1)" fill="none" class="stroke" />
  <path d="M 1184.5 1135.5  A 3.5 3.5 0 0 0 1181 1139 A 3.5 3.5 0 0 0 1184.5 1142.5 A 3.5 3.5 0 0 0 1188 1139 A 3.5 3.5 0 0 0 1184.5 1135.5 Z M 1302.8928932188135 1134.7071067811864  L 1307.185786437627 1139  L 1302.8928932188135 1143.2928932188136  L 1304.3071067811863 1144.7071067811864  L 1309.3071067811863 1139.7071067811864  L 1310.0142135623728 1139  L 1309.3071067811863 1138.2928932188136  L 1304.3071067811863 1133.2928932188136  L 1302.8928932188135 1134.7071067811864  Z " fill-rule="nonzero" fill="rgba(85, 85, 85, 1)" stroke="none" class="fill" mask="url(#Clip9)" />
</svg>