<?xml version="1.0" encoding="utf-8"?>
<svg version="1.1" xmlns:xlink="http://www.w3.org/1999/xlink" width="20px" height="21px" preserveAspectRatio="xMidYMin meet" viewBox="1080 1990  18 21" xmlns="http://www.w3.org/2000/svg">
  <defs>
    <mask fill="white" id="clip1157">
      <path d="M 686 2248  L 770 2248  L 770 2287  L 686 2287  Z M 460 1933  L 1099 1933  L 1099 2287  L 460 2287  Z " fill-rule="evenodd" />
    </mask>
  </defs>
  <path d="M 1089 1999  L 1089 2268  L 463 2268  L 463 1943  L 503 1943  " stroke-width="2" stroke="#555555" fill="none" mask="url(#clip1157)" />
  <path d="M 1089 1997  A 3.5 3.5 0 0 0 1085.5 2000.5 A 3.5 3.5 0 0 0 1089 2004 A 3.5 3.5 0 0 0 1092.5 2000.5 A 3.5 3.5 0 0 0 1089 1997 Z M 497.892893218813 1938.70710678119  L 502.185786437627 1943  L 497.892893218813 1947.29289321881  L 499.307106781187 1948.70710678119  L 504.307106781187 1943.70710678119  L 505.014213562373 1943  L 504.307106781187 1942.29289321881  L 499.307106781187 1937.29289321881  L 497.892893218813 1938.70710678119  Z " fill-rule="nonzero" fill="#555555" stroke="none" mask="url(#clip1157)" />
</svg>