<?xml version="1.0" encoding="utf-8"?>
<svg version="1.1" xmlns:xlink="http://www.w3.org/1999/xlink" width="20px" height="20px" preserveAspectRatio="xMinYMid meet" viewBox="984 1933  20 18" xmlns="http://www.w3.org/2000/svg">
  <defs>
    <mask fill="white" id="clip1171">
      <path d="M 869.5 1923  L 932.5 1923  L 932.5 1962  L 869.5 1962  Z M 795 1923  L 1006 1923  L 1006 1962  L 795 1962  Z " fill-rule="evenodd" />
    </mask>
  </defs>
  <path d="M 869.5 1942  L 807 1942  M 932.5 1942  L 994 1942  " stroke-width="2" stroke="#555555" fill="none" />
  <path d="M 808.5 1938.5  A 3.5 3.5 0 0 0 805 1942 A 3.5 3.5 0 0 0 808.5 1945.5 A 3.5 3.5 0 0 0 812 1942 A 3.5 3.5 0 0 0 808.5 1938.5 Z M 988.892893218813 1937.70710678119  L 993.185786437627 1942  L 988.892893218813 1946.29289321881  L 990.307106781187 1947.70710678119  L 995.307106781187 1942.70710678119  L 996.014213562373 1942  L 995.307106781187 1941.29289321881  L 990.307106781187 1936.29289321881  L 988.892893218813 1937.70710678119  Z " fill-rule="nonzero" fill="#555555" stroke="none" mask="url(#clip1171)" />
</svg>