<?xml version="1.0" encoding="utf-8"?>
<svg version="1.1" xmlns:xlink="http://www.w3.org/1999/xlink" width="58px" height="10px" preserveAspectRatio="xMinYMid meet" viewBox="447 3087  58 8" xmlns="http://www.w3.org/2000/svg">
  <defs>
    <mask fill="white" id="clip1195">
      <path d="M 675 3224  L 759 3224  L 759 3263  L 675 3263  Z M 449 3081  L 1099 3081  L 1099 3263  L 449 3263  Z " fill-rule="evenodd" />
    </mask>
  </defs>
  <path d="M 1089 3147  L 1089 3243  L 452 3243  L 452 3091  L 503 3091  " stroke-width="2" stroke="#555555" fill="none" mask="url(#clip1195)" />
  <path d="M 1089 3145  A 3.5 3.5 0 0 0 1085.5 3148.5 A 3.5 3.5 0 0 0 1089 3152 A 3.5 3.5 0 0 0 1092.5 3148.5 A 3.5 3.5 0 0 0 1089 3145 Z M 497.892893218813 3086.70710678119  L 502.185786437627 3091  L 497.892893218813 3095.29289321881  L 499.307106781187 3096.70710678119  L 504.307106781187 3091.70710678119  L 505.014213562373 3091  L 504.307106781187 3090.29289321881  L 499.307106781187 3085.29289321881  L 497.892893218813 3086.70710678119  Z " fill-rule="nonzero" fill="#555555" stroke="none" mask="url(#clip1195)" />
</svg>