<?xml version="1.0" encoding="utf-8"?>
<svg version="1.1" xmlns:xlink="http://www.w3.org/1999/xlink" width="196px" height="10px" preserveAspectRatio="xMinYMid meet" viewBox="805 3086  196 8" xmlns="http://www.w3.org/2000/svg">
  <defs>
    <mask fill="white" id="clip1198">
      <path d="M 848.5 3071  L 953.5 3071  L 953.5 3110  L 848.5 3110  Z M 795 3071  L 1006 3071  L 1006 3110  L 795 3110  Z " fill-rule="evenodd" />
    </mask>
  </defs>
  <path d="M 848.5 3090  L 807 3090  M 953.5 3090  L 994 3090  " stroke-width="2" stroke="#555555" fill="none" />
  <path d="M 808.5 3086.5  A 3.5 3.5 0 0 0 805 3090 A 3.5 3.5 0 0 0 808.5 3093.5 A 3.5 3.5 0 0 0 812 3090 A 3.5 3.5 0 0 0 808.5 3086.5 Z M 988.892893218813 3085.70710678119  L 993.185786437627 3090  L 988.892893218813 3094.29289321881  L 990.307106781187 3095.70710678119  L 995.307106781187 3090.70710678119  L 996.014213562373 3090  L 995.307106781187 3089.29289321881  L 990.307106781187 3084.29289321881  L 988.892893218813 3085.70710678119  Z " fill-rule="nonzero" fill="#555555" stroke="none" mask="url(#clip1198)" />
</svg>