<?xml version="1.0" encoding="utf-8"?>
<svg version="1.1" xmlns:xlink="http://www.w3.org/1999/xlink" width="20px" height="20px" preserveAspectRatio="xMinYMid meet" viewBox="985 3577  20 18" xmlns="http://www.w3.org/2000/svg">
  <defs>
    <mask fill="white" id="clip1213">
      <path d="M 844 3568  L 960 3568  L 960 3604  L 844 3604  Z M 796 3568  L 1007 3568  L 1007 3604  L 796 3604  Z " fill-rule="evenodd" />
    </mask>
  </defs>
  <path d="M 844 3586  L 808 3586  M 960 3586  L 995 3586  " stroke-width="2" stroke="#555555" fill="none" />
  <path d="M 809.5 3582.5  A 3.5 3.5 0 0 0 806 3586 A 3.5 3.5 0 0 0 809.5 3589.5 A 3.5 3.5 0 0 0 813 3586 A 3.5 3.5 0 0 0 809.5 3582.5 Z M 989.892893218813 3581.70710678119  L 994.185786437627 3586  L 989.892893218813 3590.29289321881  L 991.307106781187 3591.70710678119  L 996.307106781187 3586.70710678119  L 997.014213562373 3586  L 996.307106781187 3585.29289321881  L 991.307106781187 3580.29289321881  L 989.892893218813 3581.70710678119  Z " fill-rule="nonzero" fill="#555555" stroke="none" mask="url(#clip1213)" />
</svg>