<?xml version="1.0" encoding="utf-8"?>
<svg version="1.1" xmlns:xlink="http://www.w3.org/1999/xlink" width="20px" height="20px" preserveAspectRatio="xMinYMid meet" viewBox="1622 3577  20 18" xmlns="http://www.w3.org/2000/svg">
  <defs>
    <mask fill="white" id="clip1225">
      <path d="M 1566 3567  L 1608 3567  L 1608 3606  L 1566 3606  Z M 1529 3567  L 1644 3567  L 1644 3606  L 1529 3606  Z " fill-rule="evenodd" />
    </mask>
  </defs>
  <path d="M 1566 3586  L 1541 3586  M 1608 3586  L 1632 3586  " stroke-width="2" stroke="#555555" fill="none" />
  <path d="M 1542.5 3582.5  A 3.5 3.5 0 0 0 1539 3586 A 3.5 3.5 0 0 0 1542.5 3589.5 A 3.5 3.5 0 0 0 1546 3586 A 3.5 3.5 0 0 0 1542.5 3582.5 Z M 1626.89289321881 3581.70710678119  L 1631.18578643763 3586  L 1626.89289321881 3590.29289321881  L 1628.30710678119 3591.70710678119  L 1633.30710678119 3586.70710678119  L 1634.01421356237 3586  L 1633.30710678119 3585.29289321881  L 1628.30710678119 3580.29289321881  L 1626.89289321881 3581.70710678119  Z " fill-rule="nonzero" fill="#555555" stroke="none" mask="url(#clip1225)" />
</svg>