<?xml version="1.0" encoding="utf-8"?>
<svg version="1.1" xmlns:xlink="http://www.w3.org/1999/xlink" width="20px" height="20px" preserveAspectRatio="xMinYMid meet" viewBox="2008 4206  20 18" xmlns="http://www.w3.org/2000/svg">
  <defs>
    <mask fill="white" id="clip1274">
      <path d="M 1997 4163  L 2039 4163  L 2039 4202  L 1997 4202  Z M 1997 4138  L 2039 4138  L 2039 4227  L 1997 4227  Z " fill-rule="evenodd" />
    </mask>
  </defs>
  <path d="M 2017 4150  L 2017 4182  L 2018 4182  L 2018 4216  " stroke-width="2" stroke="#555555" fill="none" mask="url(#clip1274)" />
  <path d="M 2017 4148  A 3.5 3.5 0 0 0 2013.5 4151.5 A 3.5 3.5 0 0 0 2017 4155 A 3.5 3.5 0 0 0 2020.5 4151.5 A 3.5 3.5 0 0 0 2017 4148 Z M 2022.29289321881 4210.89289321881  L 2018 4215.18578643763  L 2013.70710678119 4210.89289321881  L 2012.29289321881 4212.30710678119  L 2017.29289321881 4217.30710678119  L 2018 4218.01421356237  L 2018.70710678119 4217.30710678119  L 2023.70710678119 4212.30710678119  L 2022.29289321881 4210.89289321881  Z " fill-rule="nonzero" fill="#555555" stroke="none" mask="url(#clip1274)" />
</svg>