<?xml version="1.0" encoding="utf-8"?>
<svg version="1.1" xmlns:xlink="http://www.w3.org/1999/xlink" width="20px" height="20px" preserveAspectRatio="xMinYMid meet" viewBox="2777 4084  20 18" xmlns="http://www.w3.org/2000/svg">
  <defs>
    <mask fill="white" id="clip1277">
      <path d="M 2708.5 4074  L 2771.5 4074  L 2771.5 4113  L 2708.5 4113  Z M 2682 4074  L 2799 4074  L 2799 4113  L 2682 4113  Z " fill-rule="evenodd" />
    </mask>
  </defs>
  <path d="M 2708.5 4093  L 2694 4093  M 2771.5 4093  L 2787 4093  " stroke-width="2" stroke="#555555" fill="none" />
  <path d="M 2695.5 4089.5  A 3.5 3.5 0 0 0 2692 4093 A 3.5 3.5 0 0 0 2695.5 4096.5 A 3.5 3.5 0 0 0 2699 4093 A 3.5 3.5 0 0 0 2695.5 4089.5 Z M 2781.89289321881 4088.70710678119  L 2786.18578643763 4093  L 2781.89289321881 4097.29289321881  L 2783.30710678119 4098.70710678119  L 2788.30710678119 4093.70710678119  L 2789.01421356237 4093  L 2788.30710678119 4092.29289321881  L 2783.30710678119 4087.29289321881  L 2781.89289321881 4088.70710678119  Z " fill-rule="nonzero" fill="#555555" stroke="none" mask="url(#clip1277)" />
</svg>