<?xml version="1.0" encoding="utf-8"?>
<svg version="1.1" xmlns:xlink="http://www.w3.org/1999/xlink" width="10px" height="102px" preserveAspectRatio="xMidYMin meet" viewBox="1421 3641  8 102" xmlns="http://www.w3.org/2000/svg">
  <defs>
    <mask fill="white" id="clip1290">
      <path d="M 1404 3670  L 1446 3670  L 1446 3709  L 1404 3709  Z M 1404 3631  L 1446 3631  L 1446 3748  L 1404 3748  Z " fill-rule="evenodd" />
    </mask>
  </defs>
  <path d="M 1425 3670  L 1425 3643  M 1425 3709  L 1425 3737  " stroke-width="2" stroke="#555555" fill="none" />
  <path d="M 1425 3641  A 3.5 3.5 0 0 0 1421.5 3644.5 A 3.5 3.5 0 0 0 1425 3648 A 3.5 3.5 0 0 0 1428.5 3644.5 A 3.5 3.5 0 0 0 1425 3641 Z M 1429.29289321881 3731.89289321881  L 1425 3736.18578643763  L 1420.70710678119 3731.89289321881  L 1419.29289321881 3733.30710678119  L 1424.29289321881 3738.30710678119  L 1425 3739.01421356237  L 1425.70710678119 3738.30710678119  L 1430.70710678119 3733.30710678119  L 1429.29289321881 3731.89289321881  Z " fill-rule="nonzero" fill="#555555" stroke="none" mask="url(#clip1290)" />
</svg>