<?xml version="1.0" encoding="utf-8"?>
<svg version="1.1" xmlns:xlink="http://www.w3.org/1999/xlink" width="20px" height="20px" preserveAspectRatio="xMinYMid meet" viewBox="2193 152  20 18" xmlns="http://www.w3.org/2000/svg">
  <defs>
    <mask fill="white" id="clip1043">
      <path d="M 2147 142  L 2189 142  L 2189 181  L 2147 181  Z M 2120 142  L 2215 142  L 2215 181  L 2120 181  Z " fill-rule="evenodd" />
    </mask>
  </defs>
  <path d="M 2147 161  L 2132 161  M 2189 161  L 2203 161  " stroke-width="2" stroke="#555555" fill="none" />
  <path d="M 2133.5 157.5  A 3.5 3.5 0 0 0 2130 161 A 3.5 3.5 0 0 0 2133.5 164.5 A 3.5 3.5 0 0 0 2137 161 A 3.5 3.5 0 0 0 2133.5 157.5 Z M 2197.89289321881 156.707106781187  L 2202.18578643763 161  L 2197.89289321881 165.292893218813  L 2199.30710678119 166.707106781187  L 2204.30710678119 161.707106781187  L 2205.01421356237 161  L 2204.30710678119 160.292893218813  L 2199.30710678119 155.292893218813  L 2197.89289321881 156.707106781187  Z " fill-rule="nonzero" fill="#555555" stroke="none" mask="url(#clip1043)" />
</svg>