<?xml version="1.0" encoding="utf-8"?>
<svg version="1.1" xmlns:xlink="http://www.w3.org/1999/xlink" width="20px" height="20px" preserveAspectRatio="xMinYMid meet" viewBox="1298 1130  20 18" xmlns="http://www.w3.org/2000/svg">
  <defs>
    <mask fill="white" id="clip1084">
      <path d="M 1213.5 1120  L 1276.5 1120  L 1276.5 1159  L 1213.5 1159  Z M 1171 1120  L 1320 1120  L 1320 1159  L 1171 1159  Z " fill-rule="evenodd" />
    </mask>
  </defs>
  <path d="M 1213.5 1139  L 1183 1139  M 1276.5 1139  L 1308 1139  " stroke-width="2" stroke="#555555" fill="none" />
  <path d="M 1184.5 1135.5  A 3.5 3.5 0 0 0 1181 1139 A 3.5 3.5 0 0 0 1184.5 1142.5 A 3.5 3.5 0 0 0 1188 1139 A 3.5 3.5 0 0 0 1184.5 1135.5 Z M 1302.89289321881 1134.70710678119  L 1307.18578643763 1139  L 1302.89289321881 1143.29289321881  L 1304.30710678119 1144.70710678119  L 1309.30710678119 1139.70710678119  L 1310.01421356237 1139  L 1309.30710678119 1138.29289321881  L 1304.30710678119 1133.29289321881  L 1302.89289321881 1134.70710678119  Z " fill-rule="nonzero" fill="#555555" stroke="none" mask="url(#clip1084)" />
</svg>