<?xml version="1.0" encoding="utf-8"?>
<svg version="1.1" xmlns:xlink="http://www.w3.org/1999/xlink" width="21px" height="20px" preserveAspectRatio="xMinYMid meet" viewBox="1519 1384  21 18" xmlns="http://www.w3.org/2000/svg">
  <defs>
    <mask fill="white" id="clip1086">
      <path d="M 1548.5 1374  L 1611.5 1374  L 1611.5 1413  L 1548.5 1413  Z M 1516 1374  L 1643 1374  L 1643 1413  L 1516 1413  Z " fill-rule="evenodd" />
    </mask>
  </defs>
  <path d="M 1548.5 1393  L 1528 1393  M 1611.5 1393  L 1631 1393  " stroke-width="2" stroke="#555555" fill="none" />
  <path d="M 1529.5 1389.5  A 3.5 3.5 0 0 0 1526 1393 A 3.5 3.5 0 0 0 1529.5 1396.5 A 3.5 3.5 0 0 0 1533 1393 A 3.5 3.5 0 0 0 1529.5 1389.5 Z M 1625.89289321881 1388.70710678119  L 1630.18578643763 1393  L 1625.89289321881 1397.29289321881  L 1627.30710678119 1398.70710678119  L 1632.30710678119 1393.70710678119  L 1633.01421356237 1393  L 1632.30710678119 1392.29289321881  L 1627.30710678119 1387.29289321881  L 1625.89289321881 1388.70710678119  Z " fill-rule="nonzero" fill="#555555" stroke="none" mask="url(#clip1086)" />
</svg>