<?xml version="1.0" encoding="utf-8"?>
<svg version="1.1" xmlns:xlink="http://www.w3.org/1999/xlink" width="80px" height="10px" preserveAspectRatio="xMinYMid meet" viewBox="2130 1389  80 8" xmlns="http://www.w3.org/2000/svg">
  <defs>
    <mask fill="white" id="clip1130">
      <path d="M 2147 1374  L 2189 1374  L 2189 1413  L 2147 1413  Z M 2120 1374  L 2215 1374  L 2215 1413  L 2120 1413  Z " fill-rule="evenodd" />
    </mask>
  </defs>
  <path d="M 2147 1393  L 2132 1393  M 2189 1393  L 2203 1393  " stroke-width="2" stroke="#555555" fill="none" />
  <path d="M 2133.5 1389.5  A 3.5 3.5 0 0 0 2130 1393 A 3.5 3.5 0 0 0 2133.5 1396.5 A 3.5 3.5 0 0 0 2137 1393 A 3.5 3.5 0 0 0 2133.5 1389.5 Z M 2197.89289321881 1388.70710678119  L 2202.18578643763 1393  L 2197.89289321881 1397.29289321881  L 2199.30710678119 1398.70710678119  L 2204.30710678119 1393.70710678119  L 2205.01421356237 1393  L 2204.30710678119 1392.29289321881  L 2199.30710678119 1387.29289321881  L 2197.89289321881 1388.70710678119  Z " fill-rule="nonzero" fill="#555555" stroke="none" mask="url(#clip1130)" />
</svg>