<?xml version="1.0" encoding="utf-8"?>
<svg version="1.1" xmlns:xlink="http://www.w3.org/1999/xlink" width="10px" height="130px" preserveAspectRatio="xMidYMin meet" viewBox="2303 1448  8 130" xmlns="http://www.w3.org/2000/svg">
  <defs>
    <mask fill="white" id="clip1142">
      <path d="M 2302 1554  L 2344 1554  L 2344 1593  L 2302 1593  Z M 2297 1438  L 2473 1438  L 2473 1593  L 2297 1593  Z " fill-rule="evenodd" />
    </mask>
  </defs>
  <path d="M 2462 1573  L 2307 1573  L 2307 1450  " stroke-width="2" stroke="#555555" fill="none" mask="url(#clip1142)" />
  <path d="M 2460.5 1569.5  A 3.5 3.5 0 0 0 2457 1573 A 3.5 3.5 0 0 0 2460.5 1576.5 A 3.5 3.5 0 0 0 2464 1573 A 3.5 3.5 0 0 0 2460.5 1569.5 Z M 2302.70710678119 1455.10710678119  L 2307 1450.81421356237  L 2311.29289321881 1455.10710678119  L 2312.70710678119 1453.69289321881  L 2307.70710678119 1448.69289321881  L 2307 1447.98578643763  L 2306.29289321881 1448.69289321881  L 2301.29289321881 1453.69289321881  L 2302.70710678119 1455.10710678119  Z " fill-rule="nonzero" fill="#555555" stroke="none" mask="url(#clip1142)" />
</svg>